<svg width="5944" height="1000" viewBox="0 0 5944 1000" fill="none" xmlns="http://www.w3.org/2000/svg">
<circle cx="500" cy="500" r="500" fill="#2D6356"/>
<path d="M873 366.183C854.864 291.315 788.969 189.88 639.648 166.937C531.436 -9.367 355.515 147.012 452.846 244.22C502.66 289.256 530.589 314.506 580.404 359.542C698.079 477.069 654.539 617.598 518.136 689.574M452.846 912V716.376C476.438 709.084 498.272 700.056 518.136 689.574M518.136 689.574V912M127 661.431C548.363 -6.34816 873 753.206 127 662.035M518.136 156.068V156.672" stroke="white" stroke-width="30" stroke-linecap="round"/>
<path d="M1475.42 307.1V737H1417.22V541.4H1185.32V737H1127.12V307.1H1185.32V498.8H1417.22V307.1H1475.42ZM1813.62 577.4L1746.12 402.5C1744.12 397.3 1742.02 391.3 1739.82 384.5C1737.62 377.5 1735.52 370.1 1733.52 362.3C1729.32 378.5 1725.02 392 1720.62 402.8L1653.12 577.4H1813.62ZM1934.82 737H1889.82C1884.62 737 1880.42 735.7 1877.22 733.1C1874.02 730.5 1871.62 727.2 1870.02 723.2L1829.82 619.4H1636.92L1596.72 723.2C1595.52 726.8 1593.22 730 1589.82 732.8C1586.42 735.6 1582.22 737 1577.22 737H1532.22L1704.12 307.1H1762.92L1934.82 737ZM2363.98 522.2C2363.98 554.4 2358.88 583.7 2348.68 610.1C2338.48 636.5 2324.08 659.1 2305.48 677.9C2286.88 696.7 2264.48 711.3 2238.28 721.7C2212.28 731.9 2183.48 737 2151.88 737H1991.38V307.1H2151.88C2183.48 307.1 2212.28 312.3 2238.28 322.7C2264.48 332.9 2286.88 347.5 2305.48 366.5C2324.08 385.3 2338.48 407.9 2348.68 434.3C2358.88 460.7 2363.98 490 2363.98 522.2ZM2304.28 522.2C2304.28 495.8 2300.68 472.2 2293.48 451.4C2286.28 430.6 2276.08 413 2262.88 398.6C2249.68 384.2 2233.68 373.2 2214.88 365.6C2196.08 358 2175.08 354.2 2151.88 354.2H2049.58V689.9H2151.88C2175.08 689.9 2196.08 686.1 2214.88 678.5C2233.68 670.9 2249.68 660 2262.88 645.8C2276.08 631.4 2286.28 613.8 2293.48 593C2300.68 572.2 2304.28 548.6 2304.28 522.2ZM2713.02 689.6L2712.72 737H2447.82V307.1H2712.72V354.5H2506.02V497.3H2673.42V542.9H2506.02V689.6H2713.02ZM3166.71 522.2C3166.71 554.4 3161.61 583.7 3151.41 610.1C3141.21 636.5 3126.81 659.1 3108.21 677.9C3089.61 696.7 3067.21 711.3 3041.01 721.7C3015.01 731.9 2986.21 737 2954.61 737H2794.11V307.1H2954.61C2986.21 307.1 3015.01 312.3 3041.01 322.7C3067.21 332.9 3089.61 347.5 3108.21 366.5C3126.81 385.3 3141.21 407.9 3151.41 434.3C3161.61 460.7 3166.71 490 3166.71 522.2ZM3107.01 522.2C3107.01 495.8 3103.41 472.2 3096.21 451.4C3089.01 430.6 3078.81 413 3065.61 398.6C3052.41 384.2 3036.41 373.2 3017.61 365.6C2998.81 358 2977.81 354.2 2954.61 354.2H2852.31V689.9H2954.61C2977.81 689.9 2998.81 686.1 3017.61 678.5C3036.41 670.9 3052.41 660 3065.61 645.8C3078.81 631.4 3089.01 613.8 3096.21 593C3103.41 572.2 3107.01 548.6 3107.01 522.2ZM3467.14 577.4L3399.64 402.5C3397.64 397.3 3395.54 391.3 3393.34 384.5C3391.14 377.5 3389.04 370.1 3387.04 362.3C3382.84 378.5 3378.54 392 3374.14 402.8L3306.64 577.4H3467.14ZM3588.34 737H3543.34C3538.14 737 3533.94 735.7 3530.74 733.1C3527.54 730.5 3525.14 727.2 3523.54 723.2L3483.34 619.4H3290.44L3250.24 723.2C3249.04 726.8 3246.74 730 3243.34 732.8C3239.94 735.6 3235.74 737 3230.74 737H3185.74L3357.64 307.1H3416.44L3588.34 737ZM4126.79 307.1V737H4068.59V541.4H3836.69V737H3778.49V307.1H3836.69V498.8H4068.59V307.1H4126.79ZM4501.89 689.6L4501.59 737H4236.69V307.1H4501.59V354.5H4294.89V497.3H4462.29V542.9H4294.89V689.6H4501.89ZM4811.28 577.4L4743.78 402.5C4741.78 397.3 4739.68 391.3 4737.48 384.5C4735.28 377.5 4733.18 370.1 4731.18 362.3C4726.98 378.5 4722.68 392 4718.28 402.8L4650.78 577.4H4811.28ZM4932.48 737H4887.48C4882.28 737 4878.08 735.7 4874.88 733.1C4871.68 730.5 4869.28 727.2 4867.68 723.2L4827.48 619.4H4634.58L4594.38 723.2C4593.18 726.8 4590.88 730 4587.48 732.8C4584.08 735.6 4579.88 737 4574.88 737H4529.88L4701.78 307.1H4760.58L4932.48 737ZM5232.93 688.1V737H4989.03V307.1H5046.93V688.1H5232.93ZM5531.69 356H5392.49V737H5334.59V356H5195.09V307.1H5531.69V356ZM5943.78 307.1V737H5885.58V541.4H5653.68V737H5595.48V307.1H5653.68V498.8H5885.58V307.1H5943.78Z" fill="#2D6356"/>
</svg>
