<svg width="5111" height="956" viewBox="0 0 5111 956" fill="none" xmlns="http://www.w3.org/2000/svg">
<path d="M896.002 328.364C874.583 244.329 796.764 130.476 620.422 104.724C492.626 -93.1633 284.87 82.3599 399.814 191.469C458.643 242.019 491.626 270.36 550.455 320.909C689.426 452.824 638.007 610.558 476.92 691.345M399.814 941.001V721.428C427.676 713.244 453.461 703.111 476.92 691.345M476.92 691.345V941.001M15.0016 659.757C512.617 -89.7749 896.002 762.767 15.0016 660.435M476.92 92.5254V93.2031" stroke="#2D6356" stroke-width="30" stroke-linecap="round"/>
<mask id="path-2-outside-1_4_8" maskUnits="userSpaceOnUse" x="1095" y="314.001" width="4016" height="361" fill="black">
<rect fill="white" x="1095" y="314.001" width="4016" height="361"/>
<path d="M1386.27 315.751V674.001H1337.77V511.001H1144.52V674.001H1096.02V315.751H1144.52V475.501H1337.77V315.751H1386.27ZM1668.1 541.001L1611.85 395.251C1610.19 390.918 1608.44 385.918 1606.6 380.251C1604.77 374.418 1603.02 368.251 1601.35 361.751C1597.85 375.251 1594.27 386.501 1590.6 395.501L1534.35 541.001H1668.1ZM1769.1 674.001H1731.6C1727.27 674.001 1723.77 672.918 1721.1 670.751C1718.44 668.585 1716.44 665.835 1715.1 662.501L1681.6 576.001H1520.85L1487.35 662.501C1486.35 665.501 1484.44 668.168 1481.6 670.501C1478.77 672.835 1475.27 674.001 1471.1 674.001H1433.6L1576.85 315.751H1625.85L1769.1 674.001ZM2126.73 495.001C2126.73 521.835 2122.48 546.251 2113.98 568.251C2105.48 590.251 2093.48 609.085 2077.98 624.751C2062.48 640.418 2043.82 652.585 2021.98 661.251C2000.32 669.751 1976.32 674.001 1949.98 674.001H1816.23V315.751H1949.98C1976.32 315.751 2000.32 320.085 2021.98 328.751C2043.82 337.251 2062.48 349.418 2077.98 365.251C2093.48 380.918 2105.48 399.751 2113.98 421.751C2122.48 443.751 2126.73 468.168 2126.73 495.001ZM2076.98 495.001C2076.98 473.001 2073.98 453.335 2067.98 436.001C2061.98 418.668 2053.48 404.001 2042.48 392.001C2031.48 380.001 2018.15 370.835 2002.48 364.501C1986.82 358.168 1969.32 355.001 1949.98 355.001H1864.73V634.751H1949.98C1969.32 634.751 1986.82 631.585 2002.48 625.251C2018.15 618.918 2031.48 609.835 2042.48 598.001C2053.48 586.001 2061.98 571.335 2067.98 554.001C2073.98 536.668 2076.98 517.001 2076.98 495.001ZM2417.6 634.501L2417.35 674.001H2196.6V315.751H2417.35V355.251H2245.1V474.251H2384.6V512.251H2245.1V634.501H2417.6ZM2795.68 495.001C2795.68 521.835 2791.43 546.251 2782.93 568.251C2774.43 590.251 2762.43 609.085 2746.93 624.751C2731.43 640.418 2712.76 652.585 2690.93 661.251C2669.26 669.751 2645.26 674.001 2618.93 674.001H2485.18V315.751H2618.93C2645.26 315.751 2669.26 320.085 2690.93 328.751C2712.76 337.251 2731.43 349.418 2746.93 365.251C2762.43 380.918 2774.43 399.751 2782.93 421.751C2791.43 443.751 2795.68 468.168 2795.68 495.001ZM2745.93 495.001C2745.93 473.001 2742.93 453.335 2736.93 436.001C2730.93 418.668 2722.43 404.001 2711.43 392.001C2700.43 380.001 2687.09 370.835 2671.43 364.501C2655.76 358.168 2638.26 355.001 2618.93 355.001H2533.68V634.751H2618.93C2638.26 634.751 2655.76 631.585 2671.43 625.251C2687.09 618.918 2700.43 609.835 2711.43 598.001C2722.43 586.001 2730.93 571.335 2736.93 554.001C2742.93 536.668 2745.93 517.001 2745.93 495.001ZM3046.03 541.001L2989.78 395.251C2988.12 390.918 2986.37 385.918 2984.53 380.251C2982.7 374.418 2980.95 368.251 2979.28 361.751C2975.78 375.251 2972.2 386.501 2968.53 395.501L2912.28 541.001H3046.03ZM3147.03 674.001H3109.53C3105.2 674.001 3101.7 672.918 3099.03 670.751C3096.37 668.585 3094.37 665.835 3093.03 662.501L3059.53 576.001H2898.78L2865.28 662.501C2864.28 665.501 2862.37 668.168 2859.53 670.501C2856.7 672.835 2853.2 674.001 2849.03 674.001H2811.53L2954.78 315.751H3003.78L3147.03 674.001ZM3595.74 315.751V674.001H3547.24V511.001H3353.99V674.001H3305.49V315.751H3353.99V475.501H3547.24V315.751H3595.74ZM3908.33 634.501L3908.08 674.001H3687.33V315.751H3908.08V355.251H3735.83V474.251H3875.33V512.251H3735.83V634.501H3908.33ZM4166.15 541.001L4109.9 395.251C4108.23 390.918 4106.48 385.918 4104.65 380.251C4102.82 374.418 4101.07 368.251 4099.4 361.751C4095.9 375.251 4092.32 386.501 4088.65 395.501L4032.4 541.001H4166.15ZM4267.15 674.001H4229.65C4225.32 674.001 4221.82 672.918 4219.15 670.751C4216.48 668.585 4214.48 665.835 4213.15 662.501L4179.65 576.001H4018.9L3985.4 662.501C3984.4 665.501 3982.48 668.168 3979.65 670.501C3976.82 672.835 3973.32 674.001 3969.15 674.001H3931.65L4074.9 315.751H4123.9L4267.15 674.001ZM4517.53 633.251V674.001H4314.28V315.751H4362.53V633.251H4517.53ZM4766.49 356.501H4650.49V674.001H4602.24V356.501H4485.99V315.751H4766.49V356.501ZM5109.9 315.751V674.001H5061.4V511.001H4868.15V674.001H4819.65V315.751H4868.15V475.501H5061.4V315.751H5109.9Z"/>
</mask>
<path d="M1386.27 315.751V674.001H1337.77V511.001H1144.52V674.001H1096.02V315.751H1144.52V475.501H1337.77V315.751H1386.27ZM1668.1 541.001L1611.85 395.251C1610.19 390.918 1608.44 385.918 1606.6 380.251C1604.77 374.418 1603.02 368.251 1601.35 361.751C1597.85 375.251 1594.27 386.501 1590.6 395.501L1534.35 541.001H1668.1ZM1769.1 674.001H1731.6C1727.27 674.001 1723.77 672.918 1721.1 670.751C1718.44 668.585 1716.44 665.835 1715.1 662.501L1681.6 576.001H1520.85L1487.35 662.501C1486.35 665.501 1484.44 668.168 1481.6 670.501C1478.77 672.835 1475.27 674.001 1471.1 674.001H1433.6L1576.85 315.751H1625.85L1769.1 674.001ZM2126.73 495.001C2126.73 521.835 2122.48 546.251 2113.98 568.251C2105.48 590.251 2093.48 609.085 2077.98 624.751C2062.48 640.418 2043.82 652.585 2021.98 661.251C2000.32 669.751 1976.32 674.001 1949.98 674.001H1816.23V315.751H1949.98C1976.32 315.751 2000.32 320.085 2021.98 328.751C2043.82 337.251 2062.48 349.418 2077.98 365.251C2093.48 380.918 2105.48 399.751 2113.98 421.751C2122.48 443.751 2126.73 468.168 2126.73 495.001ZM2076.98 495.001C2076.98 473.001 2073.98 453.335 2067.98 436.001C2061.98 418.668 2053.48 404.001 2042.48 392.001C2031.48 380.001 2018.15 370.835 2002.48 364.501C1986.82 358.168 1969.32 355.001 1949.98 355.001H1864.73V634.751H1949.98C1969.32 634.751 1986.82 631.585 2002.48 625.251C2018.15 618.918 2031.48 609.835 2042.48 598.001C2053.48 586.001 2061.98 571.335 2067.98 554.001C2073.98 536.668 2076.98 517.001 2076.98 495.001ZM2417.6 634.501L2417.35 674.001H2196.6V315.751H2417.35V355.251H2245.1V474.251H2384.6V512.251H2245.1V634.501H2417.6ZM2795.68 495.001C2795.68 521.835 2791.43 546.251 2782.93 568.251C2774.43 590.251 2762.43 609.085 2746.93 624.751C2731.43 640.418 2712.76 652.585 2690.93 661.251C2669.26 669.751 2645.26 674.001 2618.93 674.001H2485.18V315.751H2618.93C2645.26 315.751 2669.26 320.085 2690.93 328.751C2712.76 337.251 2731.43 349.418 2746.93 365.251C2762.43 380.918 2774.43 399.751 2782.93 421.751C2791.43 443.751 2795.68 468.168 2795.68 495.001ZM2745.93 495.001C2745.93 473.001 2742.93 453.335 2736.93 436.001C2730.93 418.668 2722.43 404.001 2711.43 392.001C2700.43 380.001 2687.09 370.835 2671.43 364.501C2655.76 358.168 2638.26 355.001 2618.93 355.001H2533.68V634.751H2618.93C2638.26 634.751 2655.76 631.585 2671.43 625.251C2687.09 618.918 2700.43 609.835 2711.43 598.001C2722.43 586.001 2730.93 571.335 2736.93 554.001C2742.93 536.668 2745.93 517.001 2745.93 495.001ZM3046.03 541.001L2989.78 395.251C2988.12 390.918 2986.37 385.918 2984.53 380.251C2982.7 374.418 2980.95 368.251 2979.28 361.751C2975.78 375.251 2972.2 386.501 2968.53 395.501L2912.28 541.001H3046.03ZM3147.03 674.001H3109.53C3105.2 674.001 3101.7 672.918 3099.03 670.751C3096.37 668.585 3094.37 665.835 3093.03 662.501L3059.53 576.001H2898.78L2865.28 662.501C2864.28 665.501 2862.37 668.168 2859.53 670.501C2856.7 672.835 2853.2 674.001 2849.03 674.001H2811.53L2954.78 315.751H3003.78L3147.03 674.001ZM3595.74 315.751V674.001H3547.24V511.001H3353.99V674.001H3305.49V315.751H3353.99V475.501H3547.24V315.751H3595.74ZM3908.33 634.501L3908.08 674.001H3687.33V315.751H3908.08V355.251H3735.83V474.251H3875.33V512.251H3735.83V634.501H3908.33ZM4166.15 541.001L4109.9 395.251C4108.23 390.918 4106.48 385.918 4104.65 380.251C4102.82 374.418 4101.07 368.251 4099.4 361.751C4095.9 375.251 4092.32 386.501 4088.65 395.501L4032.4 541.001H4166.15ZM4267.15 674.001H4229.65C4225.32 674.001 4221.82 672.918 4219.15 670.751C4216.48 668.585 4214.48 665.835 4213.15 662.501L4179.65 576.001H4018.9L3985.4 662.501C3984.4 665.501 3982.48 668.168 3979.65 670.501C3976.82 672.835 3973.32 674.001 3969.15 674.001H3931.65L4074.9 315.751H4123.9L4267.15 674.001ZM4517.53 633.251V674.001H4314.28V315.751H4362.53V633.251H4517.53ZM4766.49 356.501H4650.49V674.001H4602.24V356.501H4485.99V315.751H4766.49V356.501ZM5109.9 315.751V674.001H5061.4V511.001H4868.15V674.001H4819.65V315.751H4868.15V475.501H5061.4V315.751H5109.9Z" fill="#2D6356"/>
<path d="M1386.27 315.751H1387.27V314.751H1386.27V315.751ZM1386.27 674.001V675.001H1387.27V674.001H1386.27ZM1337.77 674.001H1336.77V675.001H1337.77V674.001ZM1337.77 511.001H1338.77V510.001H1337.77V511.001ZM1144.52 511.001V510.001H1143.52V511.001H1144.52ZM1144.52 674.001V675.001H1145.52V674.001H1144.52ZM1096.02 674.001H1095.02V675.001H1096.02V674.001ZM1096.02 315.751V314.751H1095.02V315.751H1096.02ZM1144.52 315.751H1145.52V314.751H1144.52V315.751ZM1144.52 475.501H1143.52V476.501H1144.52V475.501ZM1337.77 475.501V476.501H1338.77V475.501H1337.77ZM1337.77 315.751V314.751H1336.77V315.751H1337.77ZM1386.27 315.751H1385.27V674.001H1386.27H1387.27V315.751H1386.27ZM1386.27 674.001V673.001H1337.77V674.001V675.001H1386.27V674.001ZM1337.77 674.001H1338.77V511.001H1337.77H1336.77V674.001H1337.77ZM1337.77 511.001V510.001H1144.52V511.001V512.001H1337.77V511.001ZM1144.52 511.001H1143.52V674.001H1144.52H1145.52V511.001H1144.52ZM1144.52 674.001V673.001H1096.02V674.001V675.001H1144.52V674.001ZM1096.02 674.001H1097.02V315.751H1096.02H1095.02V674.001H1096.02ZM1096.02 315.751V316.751H1144.52V315.751V314.751H1096.02V315.751ZM1144.52 315.751H1143.52V475.501H1144.52H1145.52V315.751H1144.52ZM1144.52 475.501V476.501H1337.77V475.501V474.501H1144.52V475.501ZM1337.77 475.501H1338.77V315.751H1337.77H1336.77V475.501H1337.77ZM1337.77 315.751V316.751H1386.27V315.751V314.751H1337.77V315.751ZM1668.1 541.001V542.001H1669.56L1669.04 540.641L1668.1 541.001ZM1611.85 395.251L1610.92 395.61L1610.92 395.611L1611.85 395.251ZM1606.6 380.251L1605.65 380.551L1605.65 380.559L1606.6 380.251ZM1601.35 361.751L1602.32 361.503L1600.39 361.5L1601.35 361.751ZM1590.6 395.501L1589.68 395.124L1589.67 395.132L1589.67 395.141L1590.6 395.501ZM1534.35 541.001L1533.42 540.641L1532.89 542.001H1534.35V541.001ZM1769.1 674.001V675.001H1770.58L1770.03 673.63L1769.1 674.001ZM1721.1 670.751L1720.47 671.527V671.527L1721.1 670.751ZM1715.1 662.501L1714.17 662.863L1714.17 662.873L1715.1 662.501ZM1681.6 576.001L1682.54 575.64L1682.29 575.001H1681.6V576.001ZM1520.85 576.001V575.001H1520.17L1519.92 575.64L1520.85 576.001ZM1487.35 662.501L1486.42 662.14L1486.41 662.162L1486.4 662.185L1487.35 662.501ZM1481.6 670.501L1482.24 671.273V671.273L1481.6 670.501ZM1433.6 674.001L1432.67 673.63L1432.13 675.001H1433.6V674.001ZM1576.85 315.751V314.751H1576.18L1575.92 315.38L1576.85 315.751ZM1625.85 315.751L1626.78 315.38L1626.53 314.751H1625.85V315.751ZM1668.1 541.001L1669.04 540.641L1612.79 394.891L1611.85 395.251L1610.92 395.611L1667.17 541.361L1668.1 541.001ZM1611.85 395.251L1612.79 394.892C1611.13 390.58 1609.38 385.597 1607.55 379.943L1606.6 380.251L1605.65 380.559C1607.49 386.238 1609.25 391.256 1610.92 395.61L1611.85 395.251ZM1606.6 380.251L1607.56 379.951C1605.73 374.137 1603.98 367.987 1602.32 361.503L1601.35 361.751L1600.38 362C1602.06 368.515 1603.81 374.699 1605.65 380.551L1606.6 380.251ZM1601.35 361.751L1600.39 361.5C1596.89 374.974 1593.32 386.179 1589.68 395.124L1590.6 395.501L1591.53 395.879C1595.22 386.824 1598.81 375.528 1602.32 362.002L1601.35 361.751ZM1590.6 395.501L1589.67 395.141L1533.42 540.641L1534.35 541.001L1535.29 541.362L1591.54 395.862L1590.6 395.501ZM1534.35 541.001V542.001H1668.1V541.001V540.001H1534.35V541.001ZM1769.1 674.001V673.001H1731.6V674.001V675.001H1769.1V674.001ZM1731.6 674.001V673.001C1727.44 673.001 1724.18 671.963 1721.73 669.975L1721.1 670.751L1720.47 671.527C1723.36 673.873 1727.1 675.001 1731.6 675.001V674.001ZM1721.1 670.751L1721.73 669.975C1719.21 667.921 1717.3 665.313 1716.03 662.13L1715.1 662.501L1714.17 662.873C1715.57 666.357 1717.67 669.249 1720.47 671.527L1721.1 670.751ZM1715.1 662.501L1716.04 662.14L1682.54 575.64L1681.6 576.001L1680.67 576.362L1714.17 662.862L1715.1 662.501ZM1681.6 576.001V575.001H1520.85V576.001V577.001H1681.6V576.001ZM1520.85 576.001L1519.92 575.64L1486.42 662.14L1487.35 662.501L1488.29 662.862L1521.79 576.362L1520.85 576.001ZM1487.35 662.501L1486.4 662.185C1485.47 664.98 1483.68 667.496 1480.97 669.729L1481.6 670.501L1482.24 671.273C1485.19 668.84 1487.23 666.023 1488.3 662.818L1487.35 662.501ZM1481.6 670.501L1480.97 669.729C1478.34 671.896 1475.07 673.001 1471.1 673.001V674.001V675.001C1475.47 675.001 1479.2 673.774 1482.24 671.273L1481.6 670.501ZM1471.1 674.001V673.001H1433.6V674.001V675.001H1471.1V674.001ZM1433.6 674.001L1434.53 674.373L1577.78 316.123L1576.85 315.751L1575.92 315.38L1432.67 673.63L1433.6 674.001ZM1576.85 315.751V316.751H1625.85V315.751V314.751H1576.85V315.751ZM1625.85 315.751L1624.92 316.123L1768.17 674.373L1769.1 674.001L1770.03 673.63L1626.78 315.38L1625.85 315.751ZM2077.98 624.751L2077.27 624.048V624.048L2077.98 624.751ZM2021.98 661.251L2022.35 662.182L2022.35 662.181L2021.98 661.251ZM1816.23 674.001H1815.23V675.001H1816.23V674.001ZM1816.23 315.751V314.751H1815.23V315.751H1816.23ZM2021.98 328.751L2021.61 329.68L2021.62 329.683L2021.98 328.751ZM2077.98 365.251L2077.27 365.951L2077.27 365.955L2077.98 365.251ZM2113.98 421.751L2114.91 421.391V421.391L2113.98 421.751ZM2002.48 364.501L2002.11 365.428V365.428L2002.48 364.501ZM1864.73 355.001V354.001H1863.73V355.001H1864.73ZM1864.73 634.751H1863.73V635.751H1864.73V634.751ZM2002.48 625.251L2002.11 624.324V624.324L2002.48 625.251ZM2042.48 598.001L2043.21 598.682L2043.22 598.677L2042.48 598.001ZM2067.98 554.001L2068.93 554.328V554.328L2067.98 554.001ZM2126.73 495.001H2125.73C2125.73 521.728 2121.5 546.021 2113.05 567.891L2113.98 568.251L2114.91 568.612C2123.46 546.482 2127.73 521.941 2127.73 495.001H2126.73ZM2113.98 568.251L2113.05 567.891C2104.6 589.772 2092.67 608.486 2077.27 624.048L2077.98 624.751L2078.69 625.455C2094.3 609.683 2106.37 590.731 2114.91 568.612L2113.98 568.251ZM2077.98 624.751L2077.27 624.048C2061.87 639.61 2043.33 651.703 2021.61 660.322L2021.98 661.251L2022.35 662.181C2044.3 653.467 2063.09 641.226 2078.69 625.455L2077.98 624.751ZM2021.98 661.251L2021.62 660.32C2000.08 668.769 1976.21 673.001 1949.98 673.001V674.001V675.001C1976.42 675.001 2000.55 670.734 2022.35 662.182L2021.98 661.251ZM1949.98 674.001V673.001H1816.23V674.001V675.001H1949.98V674.001ZM1816.23 674.001H1817.23V315.751H1816.23H1815.23V674.001H1816.23ZM1816.23 315.751V316.751H1949.98V315.751V314.751H1816.23V315.751ZM1949.98 315.751V316.751C1976.2 316.751 2000.08 321.066 2021.61 329.68L2021.98 328.751L2022.35 327.823C2000.55 319.103 1976.43 314.751 1949.98 314.751V315.751ZM2021.98 328.751L2021.62 329.683C2043.33 338.135 2061.87 350.225 2077.27 365.951L2077.98 365.251L2078.7 364.552C2063.09 348.611 2044.3 336.368 2022.34 327.819L2021.98 328.751ZM2077.98 365.251L2077.27 365.955C2092.67 381.517 2104.6 400.231 2113.05 422.112L2113.98 421.751L2114.91 421.391C2106.37 399.272 2094.3 380.319 2078.69 364.548L2077.98 365.251ZM2113.98 421.751L2113.05 422.112C2121.5 443.982 2125.73 468.274 2125.73 495.001H2126.73H2127.73C2127.73 468.062 2123.46 443.521 2114.91 421.391L2113.98 421.751ZM2076.98 495.001H2077.98C2077.98 472.912 2074.97 453.131 2068.93 435.674L2067.98 436.001L2067.04 436.328C2072.99 453.538 2075.98 473.091 2075.98 495.001H2076.98ZM2067.98 436.001L2068.93 435.674C2062.89 418.228 2054.32 403.438 2043.22 391.326L2042.48 392.001L2041.74 392.677C2052.64 404.564 2061.08 419.108 2067.04 436.328L2067.98 436.001ZM2042.48 392.001L2043.22 391.326C2032.11 379.212 2018.66 369.961 2002.86 363.574L2002.48 364.501L2002.11 365.428C2017.64 371.708 2030.85 380.791 2041.74 392.677L2042.48 392.001ZM2002.48 364.501L2002.86 363.574C1987.06 357.186 1969.43 354.001 1949.98 354.001V355.001V356.001C1969.21 356.001 1986.58 359.15 2002.11 365.428L2002.48 364.501ZM1949.98 355.001V354.001H1864.73V355.001V356.001H1949.98V355.001ZM1864.73 355.001H1863.73V634.751H1864.73H1865.73V355.001H1864.73ZM1864.73 634.751V635.751H1949.98V634.751V633.751H1864.73V634.751ZM1949.98 634.751V635.751C1969.43 635.751 1987.06 632.566 2002.86 626.178L2002.48 625.251L2002.11 624.324C1986.58 630.603 1969.21 633.751 1949.98 633.751V634.751ZM2002.48 625.251L2002.86 626.178C2018.65 619.793 2032.11 610.628 2043.21 598.682L2042.48 598.001L2041.75 597.32C2030.85 609.042 2017.64 618.043 2002.11 624.324L2002.48 625.251ZM2042.48 598.001L2043.22 598.677C2054.32 586.564 2062.89 571.775 2068.93 554.328L2067.98 554.001L2067.04 553.674C2061.08 570.895 2052.64 585.438 2041.74 597.326L2042.48 598.001ZM2067.98 554.001L2068.93 554.328C2074.97 536.871 2077.98 517.091 2077.98 495.001H2076.98H2075.98C2075.98 516.912 2072.99 536.465 2067.04 553.674L2067.98 554.001ZM2417.6 634.501L2418.6 634.508L2418.61 633.501H2417.6V634.501ZM2417.35 674.001V675.001H2418.35L2418.35 674.008L2417.35 674.001ZM2196.6 674.001H2195.6V675.001H2196.6V674.001ZM2196.6 315.751V314.751H2195.6V315.751H2196.6ZM2417.35 315.751H2418.35V314.751H2417.35V315.751ZM2417.35 355.251V356.251H2418.35V355.251H2417.35ZM2245.1 355.251V354.251H2244.1V355.251H2245.1ZM2245.1 474.251H2244.1V475.251H2245.1V474.251ZM2384.6 474.251H2385.6V473.251H2384.6V474.251ZM2384.6 512.251V513.251H2385.6V512.251H2384.6ZM2245.1 512.251V511.251H2244.1V512.251H2245.1ZM2245.1 634.501H2244.1V635.501H2245.1V634.501ZM2417.6 634.501L2416.6 634.495L2416.35 673.995L2417.35 674.001L2418.35 674.008L2418.6 634.508L2417.6 634.501ZM2417.35 674.001V673.001H2196.6V674.001V675.001H2417.35V674.001ZM2196.6 674.001H2197.6V315.751H2196.6H2195.6V674.001H2196.6ZM2196.6 315.751V316.751H2417.35V315.751V314.751H2196.6V315.751ZM2417.35 315.751H2416.35V355.251H2417.35H2418.35V315.751H2417.35ZM2417.35 355.251V354.251H2245.1V355.251V356.251H2417.35V355.251ZM2245.1 355.251H2244.1V474.251H2245.1H2246.1V355.251H2245.1ZM2245.1 474.251V475.251H2384.6V474.251V473.251H2245.1V474.251ZM2384.6 474.251H2383.6V512.251H2384.6H2385.6V474.251H2384.6ZM2384.6 512.251V511.251H2245.1V512.251V513.251H2384.6V512.251ZM2245.1 512.251H2244.1V634.501H2245.1H2246.1V512.251H2245.1ZM2245.1 634.501V635.501H2417.6V634.501V633.501H2245.1V634.501ZM2746.93 624.751L2746.22 624.048V624.048L2746.93 624.751ZM2690.93 661.251L2691.29 662.182L2691.3 662.181L2690.93 661.251ZM2485.18 674.001H2484.18V675.001H2485.18V674.001ZM2485.18 315.751V314.751H2484.18V315.751H2485.18ZM2690.93 328.751L2690.56 329.68L2690.56 329.683L2690.93 328.751ZM2746.93 365.251L2746.21 365.951L2746.22 365.955L2746.93 365.251ZM2782.93 421.751L2783.86 421.391V421.391L2782.93 421.751ZM2671.43 364.501L2671.05 365.428V365.428L2671.43 364.501ZM2533.68 355.001V354.001H2532.68V355.001H2533.68ZM2533.68 634.751H2532.68V635.751H2533.68V634.751ZM2671.43 625.251L2671.05 624.324V624.324L2671.43 625.251ZM2711.43 598.001L2712.16 598.682L2712.16 598.677L2711.43 598.001ZM2736.93 554.001L2737.87 554.328V554.328L2736.93 554.001ZM2795.68 495.001H2794.68C2794.68 521.728 2790.44 546.021 2781.99 567.891L2782.93 568.251L2783.86 568.612C2792.41 546.482 2796.68 521.941 2796.68 495.001H2795.68ZM2782.93 568.251L2781.99 567.891C2773.54 589.772 2761.61 608.486 2746.22 624.048L2746.93 624.751L2747.64 625.455C2763.24 609.683 2775.31 590.731 2783.86 568.612L2782.93 568.251ZM2746.93 624.751L2746.22 624.048C2730.82 639.61 2712.27 651.703 2690.56 660.322L2690.93 661.251L2691.3 662.181C2713.25 653.467 2732.03 641.226 2747.64 625.455L2746.93 624.751ZM2690.93 661.251L2690.56 660.32C2669.03 668.769 2645.15 673.001 2618.93 673.001V674.001V675.001C2645.37 675.001 2669.5 670.734 2691.29 662.182L2690.93 661.251ZM2618.93 674.001V673.001H2485.18V674.001V675.001H2618.93V674.001ZM2485.18 674.001H2486.18V315.751H2485.18H2484.18V674.001H2485.18ZM2485.18 315.751V316.751H2618.93V315.751V314.751H2485.18V315.751ZM2618.93 315.751V316.751C2645.15 316.751 2669.02 321.066 2690.56 329.68L2690.93 328.751L2691.3 327.823C2669.5 319.103 2645.37 314.751 2618.93 314.751V315.751ZM2690.93 328.751L2690.56 329.683C2712.27 338.135 2730.82 350.225 2746.21 365.951L2746.93 365.251L2747.64 364.552C2732.04 348.611 2713.25 336.368 2691.29 327.819L2690.93 328.751ZM2746.93 365.251L2746.22 365.955C2761.61 381.517 2773.54 400.231 2781.99 422.112L2782.93 421.751L2783.86 421.391C2775.31 399.272 2763.24 380.319 2747.64 364.548L2746.93 365.251ZM2782.93 421.751L2781.99 422.112C2790.44 443.982 2794.68 468.274 2794.68 495.001H2795.68H2796.68C2796.68 468.062 2792.41 443.521 2783.86 421.391L2782.93 421.751ZM2745.93 495.001H2746.93C2746.93 472.912 2743.92 453.131 2737.87 435.674L2736.93 436.001L2735.98 436.328C2741.94 453.538 2744.93 473.091 2744.93 495.001H2745.93ZM2736.93 436.001L2737.87 435.674C2731.83 418.228 2723.27 403.438 2712.16 391.326L2711.43 392.001L2710.69 392.677C2721.59 404.564 2730.02 419.108 2735.98 436.328L2736.93 436.001ZM2711.43 392.001L2712.16 391.326C2701.06 379.212 2687.6 369.961 2671.8 363.574L2671.43 364.501L2671.05 365.428C2686.59 371.708 2699.79 380.791 2710.69 392.677L2711.43 392.001ZM2671.43 364.501L2671.8 363.574C2656 357.186 2638.37 354.001 2618.93 354.001V355.001V356.001C2638.15 356.001 2655.52 359.15 2671.05 365.428L2671.43 364.501ZM2618.93 355.001V354.001H2533.68V355.001V356.001H2618.93V355.001ZM2533.68 355.001H2532.68V634.751H2533.68H2534.68V355.001H2533.68ZM2533.68 634.751V635.751H2618.93V634.751V633.751H2533.68V634.751ZM2618.93 634.751V635.751C2638.37 635.751 2656 632.566 2671.8 626.178L2671.43 625.251L2671.05 624.324C2655.52 630.603 2638.15 633.751 2618.93 633.751V634.751ZM2671.43 625.251L2671.8 626.178C2687.6 619.793 2701.06 610.628 2712.16 598.682L2711.43 598.001L2710.69 597.32C2699.8 609.042 2686.59 618.043 2671.05 624.324L2671.43 625.251ZM2711.43 598.001L2712.16 598.677C2723.27 586.564 2731.83 571.775 2737.87 554.328L2736.93 554.001L2735.98 553.674C2730.02 570.895 2721.59 585.438 2710.69 597.326L2711.43 598.001ZM2736.93 554.001L2737.87 554.328C2743.92 536.871 2746.93 517.091 2746.93 495.001H2745.93H2744.93C2744.93 516.912 2741.94 536.465 2735.98 553.674L2736.93 554.001ZM3046.03 541.001V542.001H3047.49L3046.97 540.641L3046.03 541.001ZM2989.78 395.251L2988.85 395.61L2988.85 395.611L2989.78 395.251ZM2984.53 380.251L2983.58 380.551L2983.58 380.559L2984.53 380.251ZM2979.28 361.751L2980.25 361.503L2978.31 361.5L2979.28 361.751ZM2968.53 395.501L2967.61 395.124L2967.6 395.132L2967.6 395.141L2968.53 395.501ZM2912.28 541.001L2911.35 540.641L2910.82 542.001H2912.28V541.001ZM3147.03 674.001V675.001H3148.51L3147.96 673.63L3147.03 674.001ZM3099.03 670.751L3098.4 671.527V671.527L3099.03 670.751ZM3093.03 662.501L3092.1 662.863L3092.1 662.873L3093.03 662.501ZM3059.53 576.001L3060.47 575.64L3060.22 575.001H3059.53V576.001ZM2898.78 576.001V575.001H2898.1L2897.85 575.64L2898.78 576.001ZM2865.28 662.501L2864.35 662.14L2864.34 662.162L2864.33 662.185L2865.28 662.501ZM2859.53 670.501L2860.17 671.273V671.273L2859.53 670.501ZM2811.53 674.001L2810.6 673.63L2810.06 675.001H2811.53V674.001ZM2954.78 315.751V314.751H2954.11L2953.85 315.38L2954.78 315.751ZM3003.78 315.751L3004.71 315.38L3004.46 314.751H3003.78V315.751ZM3046.03 541.001L3046.97 540.641L2990.72 394.891L2989.78 395.251L2988.85 395.611L3045.1 541.361L3046.03 541.001ZM2989.78 395.251L2990.72 394.892C2989.06 390.58 2987.31 385.597 2985.48 379.943L2984.53 380.251L2983.58 380.559C2985.42 386.238 2987.17 391.256 2988.85 395.61L2989.78 395.251ZM2984.53 380.251L2985.49 379.951C2983.66 374.137 2981.91 367.987 2980.25 361.503L2979.28 361.751L2978.31 362C2979.98 368.515 2981.74 374.699 2983.58 380.551L2984.53 380.251ZM2979.28 361.751L2978.31 361.5C2974.82 374.974 2971.25 386.179 2967.61 395.124L2968.53 395.501L2969.46 395.879C2973.15 386.824 2976.74 375.528 2980.25 362.002L2979.28 361.751ZM2968.53 395.501L2967.6 395.141L2911.35 540.641L2912.28 541.001L2913.22 541.362L2969.47 395.862L2968.53 395.501ZM2912.28 541.001V542.001H3046.03V541.001V540.001H2912.28V541.001ZM3147.03 674.001V673.001H3109.53V674.001V675.001H3147.03V674.001ZM3109.53 674.001V673.001C3105.37 673.001 3102.11 671.963 3099.66 669.975L3099.03 670.751L3098.4 671.527C3101.29 673.873 3105.03 675.001 3109.53 675.001V674.001ZM3099.03 670.751L3099.66 669.975C3097.13 667.921 3095.23 665.313 3093.96 662.13L3093.03 662.501L3092.1 662.873C3093.5 666.357 3095.6 669.249 3098.4 671.527L3099.03 670.751ZM3093.03 662.501L3093.97 662.14L3060.47 575.64L3059.53 576.001L3058.6 576.362L3092.1 662.862L3093.03 662.501ZM3059.53 576.001V575.001H2898.78V576.001V577.001H3059.53V576.001ZM2898.78 576.001L2897.85 575.64L2864.35 662.14L2865.28 662.501L2866.22 662.862L2899.72 576.362L2898.78 576.001ZM2865.28 662.501L2864.33 662.185C2863.4 664.98 2861.61 667.496 2858.9 669.729L2859.53 670.501L2860.17 671.273C2863.12 668.84 2865.16 666.023 2866.23 662.818L2865.28 662.501ZM2859.53 670.501L2858.9 669.729C2856.27 671.896 2853 673.001 2849.03 673.001V674.001V675.001C2853.4 675.001 2857.13 673.774 2860.17 671.273L2859.53 670.501ZM2849.03 674.001V673.001H2811.53V674.001V675.001H2849.03V674.001ZM2811.53 674.001L2812.46 674.373L2955.71 316.123L2954.78 315.751L2953.85 315.38L2810.6 673.63L2811.53 674.001ZM2954.78 315.751V316.751H3003.78V315.751V314.751H2954.78V315.751ZM3003.78 315.751L3002.85 316.123L3146.1 674.373L3147.03 674.001L3147.96 673.63L3004.71 315.38L3003.78 315.751ZM3595.74 315.751H3596.74V314.751H3595.74V315.751ZM3595.74 674.001V675.001H3596.74V674.001H3595.74ZM3547.24 674.001H3546.24V675.001H3547.24V674.001ZM3547.24 511.001H3548.24V510.001H3547.24V511.001ZM3353.99 511.001V510.001H3352.99V511.001H3353.99ZM3353.99 674.001V675.001H3354.99V674.001H3353.99ZM3305.49 674.001H3304.49V675.001H3305.49V674.001ZM3305.49 315.751V314.751H3304.49V315.751H3305.49ZM3353.99 315.751H3354.99V314.751H3353.99V315.751ZM3353.99 475.501H3352.99V476.501H3353.99V475.501ZM3547.24 475.501V476.501H3548.24V475.501H3547.24ZM3547.24 315.751V314.751H3546.24V315.751H3547.24ZM3595.74 315.751H3594.74V674.001H3595.74H3596.74V315.751H3595.74ZM3595.74 674.001V673.001H3547.24V674.001V675.001H3595.74V674.001ZM3547.24 674.001H3548.24V511.001H3547.24H3546.24V674.001H3547.24ZM3547.24 511.001V510.001H3353.99V511.001V512.001H3547.24V511.001ZM3353.99 511.001H3352.99V674.001H3353.99H3354.99V511.001H3353.99ZM3353.99 674.001V673.001H3305.49V674.001V675.001H3353.99V674.001ZM3305.49 674.001H3306.49V315.751H3305.49H3304.49V674.001H3305.49ZM3305.49 315.751V316.751H3353.99V315.751V314.751H3305.49V315.751ZM3353.99 315.751H3352.99V475.501H3353.99H3354.99V315.751H3353.99ZM3353.99 475.501V476.501H3547.24V475.501V474.501H3353.99V475.501ZM3547.24 475.501H3548.24V315.751H3547.24H3546.24V475.501H3547.24ZM3547.24 315.751V316.751H3595.74V315.751V314.751H3547.24V315.751ZM3908.33 634.501L3909.33 634.508L3909.33 633.501H3908.33V634.501ZM3908.08 674.001V675.001H3909.07L3909.08 674.008L3908.08 674.001ZM3687.33 674.001H3686.33V675.001H3687.33V674.001ZM3687.33 315.751V314.751H3686.33V315.751H3687.33ZM3908.08 315.751H3909.08V314.751H3908.08V315.751ZM3908.08 355.251V356.251H3909.08V355.251H3908.08ZM3735.83 355.251V354.251H3734.83V355.251H3735.83ZM3735.83 474.251H3734.83V475.251H3735.83V474.251ZM3875.33 474.251H3876.33V473.251H3875.33V474.251ZM3875.33 512.251V513.251H3876.33V512.251H3875.33ZM3735.83 512.251V511.251H3734.83V512.251H3735.83ZM3735.83 634.501H3734.83V635.501H3735.83V634.501ZM3908.33 634.501L3907.33 634.495L3907.08 673.995L3908.08 674.001L3909.08 674.008L3909.33 634.508L3908.33 634.501ZM3908.08 674.001V673.001H3687.33V674.001V675.001H3908.08V674.001ZM3687.33 674.001H3688.33V315.751H3687.33H3686.33V674.001H3687.33ZM3687.33 315.751V316.751H3908.08V315.751V314.751H3687.33V315.751ZM3908.08 315.751H3907.08V355.251H3908.08H3909.08V315.751H3908.08ZM3908.08 355.251V354.251H3735.83V355.251V356.251H3908.08V355.251ZM3735.83 355.251H3734.83V474.251H3735.83H3736.83V355.251H3735.83ZM3735.83 474.251V475.251H3875.33V474.251V473.251H3735.83V474.251ZM3875.33 474.251H3874.33V512.251H3875.33H3876.33V474.251H3875.33ZM3875.33 512.251V511.251H3735.83V512.251V513.251H3875.33V512.251ZM3735.83 512.251H3734.83V634.501H3735.83H3736.83V512.251H3735.83ZM3735.83 634.501V635.501H3908.33V634.501V633.501H3735.83V634.501ZM4166.15 541.001V542.001H4167.61L4167.08 540.641L4166.15 541.001ZM4109.9 395.251L4108.97 395.61L4108.97 395.611L4109.9 395.251ZM4104.65 380.251L4103.7 380.551L4103.7 380.559L4104.65 380.251ZM4099.4 361.751L4100.37 361.503L4098.43 361.5L4099.4 361.751ZM4088.65 395.501L4087.72 395.124L4087.72 395.132L4087.72 395.141L4088.65 395.501ZM4032.4 541.001L4031.47 540.641L4030.94 542.001H4032.4V541.001ZM4267.15 674.001V675.001H4268.63L4268.08 673.63L4267.15 674.001ZM4219.15 670.751L4218.52 671.527V671.527L4219.15 670.751ZM4213.15 662.501L4212.22 662.863L4212.22 662.873L4213.15 662.501ZM4179.65 576.001L4180.58 575.64L4180.34 575.001H4179.65V576.001ZM4018.9 576.001V575.001H4018.21L4017.97 575.64L4018.9 576.001ZM3985.4 662.501L3984.47 662.14L3984.46 662.162L3984.45 662.185L3985.4 662.501ZM3979.65 670.501L3980.29 671.273V671.273L3979.65 670.501ZM3931.65 674.001L3930.72 673.63L3930.17 675.001H3931.65V674.001ZM4074.9 315.751V314.751H4074.22L4073.97 315.38L4074.9 315.751ZM4123.9 315.751L4124.83 315.38L4124.58 314.751H4123.9V315.751ZM4166.15 541.001L4167.08 540.641L4110.83 394.891L4109.9 395.251L4108.97 395.611L4165.22 541.361L4166.15 541.001ZM4109.9 395.251L4110.83 394.892C4109.17 390.58 4107.43 385.597 4105.6 379.943L4104.65 380.251L4103.7 380.559C4105.54 386.238 4107.29 391.256 4108.97 395.61L4109.9 395.251ZM4104.65 380.251L4105.6 379.951C4103.78 374.137 4102.03 367.987 4100.37 361.503L4099.4 361.751L4098.43 362C4100.1 368.515 4101.86 374.699 4103.7 380.551L4104.65 380.251ZM4099.4 361.751L4098.43 361.5C4094.94 374.974 4091.37 386.179 4087.72 395.124L4088.65 395.501L4089.58 395.879C4093.27 386.824 4096.86 375.528 4100.37 362.002L4099.4 361.751ZM4088.65 395.501L4087.72 395.141L4031.47 540.641L4032.4 541.001L4033.33 541.362L4089.58 395.862L4088.65 395.501ZM4032.4 541.001V542.001H4166.15V541.001V540.001H4032.4V541.001ZM4267.15 674.001V673.001H4229.65V674.001V675.001H4267.15V674.001ZM4229.65 674.001V673.001C4225.48 673.001 4222.23 671.963 4219.78 669.975L4219.15 670.751L4218.52 671.527C4221.41 673.873 4225.15 675.001 4229.65 675.001V674.001ZM4219.15 670.751L4219.78 669.975C4217.25 667.921 4215.35 665.313 4214.08 662.13L4213.15 662.501L4212.22 662.873C4213.62 666.357 4215.71 669.249 4218.52 671.527L4219.15 670.751ZM4213.15 662.501L4214.08 662.14L4180.58 575.64L4179.65 576.001L4178.72 576.362L4212.22 662.862L4213.15 662.501ZM4179.65 576.001V575.001H4018.9V576.001V577.001H4179.65V576.001ZM4018.9 576.001L4017.97 575.64L3984.47 662.14L3985.4 662.501L3986.33 662.862L4019.83 576.362L4018.9 576.001ZM3985.4 662.501L3984.45 662.185C3983.52 664.98 3981.73 667.496 3979.01 669.729L3979.65 670.501L3980.29 671.273C3983.24 668.84 3985.28 666.023 3986.35 662.818L3985.4 662.501ZM3979.65 670.501L3979.01 669.729C3976.38 671.896 3973.12 673.001 3969.15 673.001V674.001V675.001C3973.52 675.001 3977.25 673.774 3980.29 671.273L3979.65 670.501ZM3969.15 674.001V673.001H3931.65V674.001V675.001H3969.15V674.001ZM3931.65 674.001L3932.58 674.373L4075.83 316.123L4074.9 315.751L4073.97 315.38L3930.72 673.63L3931.65 674.001ZM4074.9 315.751V316.751H4123.9V315.751V314.751H4074.9V315.751ZM4123.9 315.751L4122.97 316.123L4266.22 674.373L4267.15 674.001L4268.08 673.63L4124.83 315.38L4123.9 315.751ZM4517.53 633.251H4518.53V632.251H4517.53V633.251ZM4517.53 674.001V675.001H4518.53V674.001H4517.53ZM4314.28 674.001H4313.28V675.001H4314.28V674.001ZM4314.28 315.751V314.751H4313.28V315.751H4314.28ZM4362.53 315.751H4363.53V314.751H4362.53V315.751ZM4362.53 633.251H4361.53V634.251H4362.53V633.251ZM4517.53 633.251H4516.53V674.001H4517.53H4518.53V633.251H4517.53ZM4517.53 674.001V673.001H4314.28V674.001V675.001H4517.53V674.001ZM4314.28 674.001H4315.28V315.751H4314.28H4313.28V674.001H4314.28ZM4314.28 315.751V316.751H4362.53V315.751V314.751H4314.28V315.751ZM4362.53 315.751H4361.53V633.251H4362.53H4363.53V315.751H4362.53ZM4362.53 633.251V634.251H4517.53V633.251V632.251H4362.53V633.251ZM4766.49 356.501V357.501H4767.49V356.501H4766.49ZM4650.49 356.501V355.501H4649.49V356.501H4650.49ZM4650.49 674.001V675.001H4651.49V674.001H4650.49ZM4602.24 674.001H4601.24V675.001H4602.24V674.001ZM4602.24 356.501H4603.24V355.501H4602.24V356.501ZM4485.99 356.501H4484.99V357.501H4485.99V356.501ZM4485.99 315.751V314.751H4484.99V315.751H4485.99ZM4766.49 315.751H4767.49V314.751H4766.49V315.751ZM4766.49 356.501V355.501H4650.49V356.501V357.501H4766.49V356.501ZM4650.49 356.501H4649.49V674.001H4650.49H4651.49V356.501H4650.49ZM4650.49 674.001V673.001H4602.24V674.001V675.001H4650.49V674.001ZM4602.24 674.001H4603.24V356.501H4602.24H4601.24V674.001H4602.24ZM4602.24 356.501V355.501H4485.99V356.501V357.501H4602.24V356.501ZM4485.99 356.501H4486.99V315.751H4485.99H4484.99V356.501H4485.99ZM4485.99 315.751V316.751H4766.49V315.751V314.751H4485.99V315.751ZM4766.49 315.751H4765.49V356.501H4766.49H4767.49V315.751H4766.49ZM5109.9 315.751H5110.9V314.751H5109.9V315.751ZM5109.9 674.001V675.001H5110.9V674.001H5109.9ZM5061.4 674.001H5060.4V675.001H5061.4V674.001ZM5061.4 511.001H5062.4V510.001H5061.4V511.001ZM4868.15 511.001V510.001H4867.15V511.001H4868.15ZM4868.15 674.001V675.001H4869.15V674.001H4868.15ZM4819.65 674.001H4818.65V675.001H4819.65V674.001ZM4819.65 315.751V314.751H4818.65V315.751H4819.65ZM4868.15 315.751H4869.15V314.751H4868.15V315.751ZM4868.15 475.501H4867.15V476.501H4868.15V475.501ZM5061.4 475.501V476.501H5062.4V475.501H5061.4ZM5061.4 315.751V314.751H5060.4V315.751H5061.4ZM5109.9 315.751H5108.9V674.001H5109.9H5110.9V315.751H5109.9ZM5109.9 674.001V673.001H5061.4V674.001V675.001H5109.9V674.001ZM5061.4 674.001H5062.4V511.001H5061.4H5060.4V674.001H5061.4ZM5061.4 511.001V510.001H4868.15V511.001V512.001H5061.4V511.001ZM4868.15 511.001H4867.15V674.001H4868.15H4869.15V511.001H4868.15ZM4868.15 674.001V673.001H4819.65V674.001V675.001H4868.15V674.001ZM4819.65 674.001H4820.65V315.751H4819.65H4818.65V674.001H4819.65ZM4819.65 315.751V316.751H4868.15V315.751V314.751H4819.65V315.751ZM4868.15 315.751H4867.15V475.501H4868.15H4869.15V315.751H4868.15ZM4868.15 475.501V476.501H5061.4V475.501V474.501H4868.15V475.501ZM5061.4 475.501H5062.4V315.751H5061.4H5060.4V475.501H5061.4ZM5061.4 315.751V316.751H5109.9V315.751V314.751H5061.4V315.751Z" fill="#2D6356" mask="url(#path-2-outside-1_4_8)"/>
</svg>
