<?xml version="1.0" encoding="UTF-8" standalone="no"?>
<svg
   width="2442"
   height="855"
   viewBox="0 0 2442 855"
   fill="none"
   version="1.1"
   id="svg2"
   sodipodi:docname="Wordmark Mono.svg"
   inkscape:version="1.4.2 (ebf0e940, 2025-05-08)"
   xmlns:inkscape="http://www.inkscape.org/namespaces/inkscape"
   xmlns:sodipodi="http://sodipodi.sourceforge.net/DTD/sodipodi-0.dtd"
   xmlns="http://www.w3.org/2000/svg"
   xmlns:svg="http://www.w3.org/2000/svg">
  <defs
     id="defs2" />
  <sodipodi:namedview
     id="namedview2"
     pagecolor="#ffffff"
     bordercolor="#000000"
     borderopacity="0.25"
     inkscape:showpageshadow="2"
     inkscape:pageopacity="0.0"
     inkscape:pagecheckerboard="0"
     inkscape:deskcolor="#d1d1d1"
     inkscape:zoom="0.34070434"
     inkscape:cx="1221"
     inkscape:cy="428.52404"
     inkscape:window-width="976"
     inkscape:window-height="955"
     inkscape:window-x="0"
     inkscape:window-y="25"
     inkscape:window-maximized="0"
     inkscape:current-layer="svg2" />
  <path
     d="M761 294.183C742.864 219.315 676.969 117.88 527.648 94.9365C419.436 -81.367 243.515 75.0117 340.846 172.22C390.66 217.256 418.589 242.506 468.404 287.542C586.079 405.069 542.539 545.598 406.136 617.574M340.846 840V644.376C364.438 637.084 386.272 628.056 406.136 617.574M406.136 617.574V840M15 589.431C436.363 -78.3482 761 681.206 15 590.035M406.136 84.0684V84.6722"
     stroke="white"
     stroke-width="30"
     stroke-linecap="round"
     id="path1" />
  <path
     d="M1181.34 92.225V343H1147.39V228.9H1012.11V343H978.161V92.225H1012.11V204.05H1147.39V92.225H1181.34ZM1378.62 249.9L1339.25 147.875C1338.08 144.842 1336.85 141.342 1335.57 137.375C1334.29 133.292 1333.06 128.975 1331.9 124.425C1329.45 133.875 1326.94 141.75 1324.37 148.05L1285 249.9H1378.62ZM1449.32 343H1423.07C1420.04 343 1417.59 342.242 1415.72 340.725C1413.85 339.208 1412.45 337.283 1411.52 334.95L1388.07 274.4H1275.55L1252.1 334.95C1251.4 337.05 1250.05 338.917 1248.07 340.55C1246.09 342.183 1243.64 343 1240.72 343H1214.47L1314.75 92.225H1349.05L1449.32 343ZM1699.66 217.7C1699.66 236.483 1696.69 253.575 1690.74 268.975C1684.79 284.375 1676.39 297.558 1665.54 308.525C1654.69 319.492 1641.62 328.008 1626.34 334.075C1611.17 340.025 1594.37 343 1575.94 343H1482.31V92.225H1575.94C1594.37 92.225 1611.17 95.2583 1626.34 101.325C1641.62 107.275 1654.69 115.792 1665.54 126.875C1676.39 137.842 1684.79 151.025 1690.74 166.425C1696.69 181.825 1699.66 198.917 1699.66 217.7ZM1664.84 217.7C1664.84 202.3 1662.74 188.533 1658.54 176.4C1654.34 164.267 1648.39 154 1640.69 145.6C1632.99 137.2 1623.65 130.783 1612.69 126.35C1601.72 121.917 1589.47 119.7 1575.94 119.7H1516.26V315.525H1575.94C1589.47 315.525 1601.72 313.308 1612.69 308.875C1623.65 304.442 1632.99 298.083 1640.69 289.8C1648.39 281.4 1654.34 271.133 1658.54 259C1662.74 246.867 1664.84 233.1 1664.84 217.7ZM1874.91 249.9L1835.53 147.875C1834.37 144.842 1833.14 141.342 1831.86 137.375C1830.58 133.292 1829.35 128.975 1828.18 124.425C1825.73 133.875 1823.23 141.75 1820.66 148.05L1781.28 249.9H1874.91ZM1945.61 343H1919.36C1916.33 343 1913.88 342.242 1912.01 340.725C1910.14 339.208 1908.74 337.283 1907.81 334.95L1884.36 274.4H1771.83L1748.38 334.95C1747.68 337.05 1746.34 338.917 1744.36 340.55C1742.38 342.183 1739.93 343 1737.01 343H1710.76L1811.03 92.225H1845.33L1945.61 343ZM2195.95 217.7C2195.95 236.483 2192.98 253.575 2187.03 268.975C2181.08 284.375 2172.68 297.558 2161.83 308.525C2150.98 319.492 2137.91 328.008 2122.63 334.075C2107.46 340.025 2090.66 343 2072.23 343H1978.6V92.225H2072.23C2090.66 92.225 2107.46 95.2583 2122.63 101.325C2137.91 107.275 2150.98 115.792 2161.83 126.875C2172.68 137.842 2181.08 151.025 2187.03 166.425C2192.98 181.825 2195.95 198.917 2195.95 217.7ZM2161.13 217.7C2161.13 202.3 2159.03 188.533 2154.83 176.4C2150.63 164.267 2144.68 154 2136.98 145.6C2129.28 137.2 2119.94 130.783 2108.98 126.35C2098.01 121.917 2085.76 119.7 2072.23 119.7H2012.55V315.525H2072.23C2085.76 315.525 2098.01 313.308 2108.98 308.875C2119.94 304.442 2129.28 298.083 2136.98 289.8C2144.68 281.4 2150.63 271.133 2154.83 259C2159.03 246.867 2161.13 233.1 2161.13 217.7ZM2371.2 249.9L2331.82 147.875C2330.66 144.842 2329.43 141.342 2328.15 137.375C2326.87 133.292 2325.64 128.975 2324.47 124.425C2322.02 133.875 2319.52 141.75 2316.95 148.05L2277.57 249.9H2371.2ZM2441.9 343H2415.65C2412.62 343 2410.17 342.242 2408.3 340.725C2406.43 339.208 2405.03 337.283 2404.1 334.95L2380.65 274.4H2268.12L2244.67 334.95C2243.97 337.05 2242.63 338.917 2240.65 340.55C2238.67 342.183 2236.22 343 2233.3 343H2207.05L2307.32 92.225H2341.62L2441.9 343ZM1266.1 512.225V763H1232.15V648.9H1096.88V763H1062.93V512.225H1096.88V624.05H1232.15V512.225H1266.1ZM1484.91 735.35L1484.74 763H1330.21V512.225H1484.74V539.875H1364.16V623.175H1461.81V649.775H1364.16V735.35H1484.91ZM1665.39 669.9L1626.01 567.875C1624.85 564.842 1623.62 561.342 1622.34 557.375C1621.06 553.292 1619.83 548.975 1618.66 544.425C1616.21 553.875 1613.71 561.75 1611.14 568.05L1571.76 669.9H1665.39ZM1736.09 763H1709.84C1706.81 763 1704.36 762.242 1702.49 760.725C1700.62 759.208 1699.22 757.283 1698.29 754.95L1674.84 694.4H1562.31L1538.86 754.95C1538.16 757.05 1536.82 758.917 1534.84 760.55C1532.86 762.183 1530.41 763 1527.49 763H1501.24L1601.51 512.225H1635.81L1736.09 763ZM1911.35 734.475V763H1769.08V512.225H1802.85V734.475H1911.35ZM2085.63 540.75H2004.43V763H1970.65V540.75H1889.28V512.225H2085.63V540.75ZM2326.01 512.225V763H2292.06V648.9H2156.79V763H2122.84V512.225H2156.79V624.05H2292.06V512.225H2326.01Z"
     fill="white"
     id="path2" />
</svg>
