<?xml version="1.0" encoding="UTF-8" standalone="no"?>
<svg
   width="2549"
   height="1000"
   viewBox="0 0 2549 1000"
   fill="none"
   version="1.1"
   id="svg2"
   sodipodi:docname="Wordmark Green.svg"
   inkscape:version="1.4.2 (ebf0e940, 2025-05-08)"
   xmlns:inkscape="http://www.inkscape.org/namespaces/inkscape"
   xmlns:sodipodi="http://sodipodi.sourceforge.net/DTD/sodipodi-0.dtd"
   xmlns="http://www.w3.org/2000/svg"
   xmlns:svg="http://www.w3.org/2000/svg">
  <defs
     id="defs2" />
  <sodipodi:namedview
     id="namedview2"
     pagecolor="#ffffff"
     bordercolor="#000000"
     borderopacity="0.25"
     inkscape:showpageshadow="2"
     inkscape:pageopacity="0.0"
     inkscape:pagecheckerboard="0"
     inkscape:deskcolor="#d1d1d1"
     inkscape:zoom="0.32640251"
     inkscape:cx="1274.5"
     inkscape:cy="499.38341"
     inkscape:window-width="1808"
     inkscape:window-height="955"
     inkscape:window-x="0"
     inkscape:window-y="25"
     inkscape:window-maximized="0"
     inkscape:current-layer="svg2" />
  <circle
     cx="500"
     cy="500"
     r="500"
     fill="#2D6356"
     id="circle1" />
  <path
     d="M873 366.183C854.864 291.315 788.969 189.88 639.648 166.937C531.436 -9.367 355.515 147.012 452.846 244.22C502.66 289.256 530.589 314.506 580.404 359.542C698.079 477.069 654.539 617.598 518.136 689.574M452.846 912V716.376C476.438 709.084 498.272 700.056 518.136 689.574M518.136 689.574V912M127 661.431C548.363 -6.34816 873 753.206 127 662.035M518.136 156.068V156.672"
     stroke="white"
     stroke-width="30"
     stroke-linecap="round"
     id="path1" />
  <path
     d="M1288.2 181.225V432H1254.25V317.9H1118.98V432H1085.03V181.225H1118.98V293.05H1254.25V181.225H1288.2ZM1485.49 338.9L1446.11 236.875C1444.94 233.842 1443.72 230.342 1442.44 226.375C1441.15 222.292 1439.93 217.975 1438.76 213.425C1436.31 222.875 1433.8 230.75 1431.24 237.05L1391.86 338.9H1485.49ZM1556.19 432H1529.94C1526.9 432 1524.45 431.242 1522.59 429.725C1520.72 428.208 1519.32 426.283 1518.39 423.95L1494.94 363.4H1382.41L1358.96 423.95C1358.26 426.05 1356.92 427.917 1354.94 429.55C1352.95 431.183 1350.5 432 1347.59 432H1321.34L1421.61 181.225H1455.91L1556.19 432ZM1806.53 306.7C1806.53 325.483 1803.55 342.575 1797.6 357.975C1791.65 373.375 1783.25 386.558 1772.4 397.525C1761.55 408.492 1748.48 417.008 1733.2 423.075C1718.03 429.025 1701.23 432 1682.8 432H1589.18V181.225H1682.8C1701.23 181.225 1718.03 184.258 1733.2 190.325C1748.48 196.275 1761.55 204.792 1772.4 215.875C1783.25 226.842 1791.65 240.025 1797.6 255.425C1803.55 270.825 1806.53 287.917 1806.53 306.7ZM1771.7 306.7C1771.7 291.3 1769.6 277.533 1765.4 265.4C1761.2 253.267 1755.25 243 1747.55 234.6C1739.85 226.2 1730.52 219.783 1719.55 215.35C1708.58 210.917 1696.33 208.7 1682.8 208.7H1623.13V404.525H1682.8C1696.33 404.525 1708.58 402.308 1719.55 397.875C1730.52 393.442 1739.85 387.083 1747.55 378.8C1755.25 370.4 1761.2 360.133 1765.4 348C1769.6 335.867 1771.7 322.1 1771.7 306.7ZM1981.77 338.9L1942.4 236.875C1941.23 233.842 1940.01 230.342 1938.72 226.375C1937.44 222.292 1936.22 217.975 1935.05 213.425C1932.6 222.875 1930.09 230.75 1927.52 237.05L1888.15 338.9H1981.77ZM2052.47 432H2026.22C2023.19 432 2020.74 431.242 2018.87 429.725C2017.01 428.208 2015.61 426.283 2014.67 423.95L1991.22 363.4H1878.7L1855.25 423.95C1854.55 426.05 1853.21 427.917 1851.22 429.55C1849.24 431.183 1846.79 432 1843.87 432H1817.62L1917.9 181.225H1952.2L2052.47 432ZM2302.81 306.7C2302.81 325.483 2299.84 342.575 2293.89 357.975C2287.94 373.375 2279.54 386.558 2268.69 397.525C2257.84 408.492 2244.77 417.008 2229.49 423.075C2214.32 429.025 2197.52 432 2179.09 432H2085.46V181.225H2179.09C2197.52 181.225 2214.32 184.258 2229.49 190.325C2244.77 196.275 2257.84 204.792 2268.69 215.875C2279.54 226.842 2287.94 240.025 2293.89 255.425C2299.84 270.825 2302.81 287.917 2302.81 306.7ZM2267.99 306.7C2267.99 291.3 2265.89 277.533 2261.69 265.4C2257.49 253.267 2251.54 243 2243.84 234.6C2236.14 226.2 2226.81 219.783 2215.84 215.35C2204.87 210.917 2192.62 208.7 2179.09 208.7H2119.41V404.525H2179.09C2192.62 404.525 2204.87 402.308 2215.84 397.875C2226.81 393.442 2236.14 387.083 2243.84 378.8C2251.54 370.4 2257.49 360.133 2261.69 348C2265.89 335.867 2267.99 322.1 2267.99 306.7ZM2478.06 338.9L2438.69 236.875C2437.52 233.842 2436.3 230.342 2435.01 226.375C2433.73 222.292 2432.5 217.975 2431.34 213.425C2428.89 222.875 2426.38 230.75 2423.81 237.05L2384.44 338.9H2478.06ZM2548.76 432H2522.51C2519.48 432 2517.03 431.242 2515.16 429.725C2513.3 428.208 2511.9 426.283 2510.96 423.95L2487.51 363.4H2374.99L2351.54 423.95C2350.84 426.05 2349.5 427.917 2347.51 429.55C2345.53 431.183 2343.08 432 2340.16 432H2313.91L2414.19 181.225H2448.49L2548.76 432ZM1288.2 601.225V852H1254.25V737.9H1118.98V852H1085.03V601.225H1118.98V713.05H1254.25V601.225H1288.2ZM1507.01 824.35L1506.84 852H1352.31V601.225H1506.84V628.875H1386.26V712.175H1483.91V738.775H1386.26V824.35H1507.01ZM1687.49 758.9L1648.11 656.875C1646.95 653.842 1645.72 650.342 1644.44 646.375C1643.15 642.292 1641.93 637.975 1640.76 633.425C1638.31 642.875 1635.8 650.75 1633.24 657.05L1593.86 758.9H1687.49ZM1758.19 852H1731.94C1728.9 852 1726.45 851.242 1724.59 849.725C1722.72 848.208 1721.32 846.283 1720.39 843.95L1696.94 783.4H1584.41L1560.96 843.95C1560.26 846.05 1558.92 847.917 1556.94 849.55C1554.95 851.183 1552.5 852 1549.59 852H1523.34L1623.61 601.225H1657.91L1758.19 852ZM1933.45 823.475V852H1791.18V601.225H1824.95V823.475H1933.45ZM2107.73 629.75H2026.53V852H1992.75V629.75H1911.38V601.225H2107.73V629.75ZM2348.11 601.225V852H2314.16V737.9H2178.89V852H2144.94V601.225H2178.89V713.05H2314.16V601.225H2348.11Z"
     fill="#2D6356"
     id="path2" />
</svg>
