<svg width="3093" height="973" viewBox="0 0 3093 973" fill="none" xmlns="http://www.w3.org/2000/svg">
<path d="M896.002 328.364C874.583 244.329 796.764 130.476 620.422 104.724C492.626 -93.1633 284.87 82.3599 399.814 191.469C458.643 242.019 491.626 270.36 550.455 320.909C689.426 452.824 638.007 610.558 476.92 691.345M399.814 941.001V721.428C427.676 713.244 453.461 703.111 476.92 691.345M476.92 691.345V941.001M15.0016 659.757C512.617 -89.7749 896.002 762.767 15.0016 660.435M476.92 92.5254V93.2031" stroke="white" stroke-width="30" stroke-linecap="round"/>
<mask id="path-2-outside-1_4_8" maskUnits="userSpaceOnUse" x="1039" y="12.0013" width="2054" height="961" fill="black">
<rect fill="white" x="1039" y="12.0013" width="2054" height="961"/>
<path d="M1330.27 13.7513V372.001H1281.77V209.001H1088.52V372.001H1040.02V13.7513H1088.52V173.501H1281.77V13.7513H1330.27ZM1612.1 239.001L1555.85 93.2513C1554.18 88.918 1552.43 83.918 1550.6 78.2513C1548.77 72.418 1547.02 66.2513 1545.35 59.7513C1541.85 73.2513 1538.27 84.5013 1534.6 93.5013L1478.35 239.001H1612.1ZM1713.1 372.001H1675.6C1671.27 372.001 1667.77 370.918 1665.1 368.751C1662.43 366.585 1660.43 363.835 1659.1 360.501L1625.6 274.001H1464.85L1431.35 360.501C1430.35 363.501 1428.43 366.168 1425.6 368.501C1422.77 370.835 1419.27 372.001 1415.1 372.001H1377.6L1520.85 13.7513H1569.85L1713.1 372.001ZM2070.73 193.001C2070.73 219.835 2066.48 244.251 2057.98 266.251C2049.48 288.251 2037.48 307.085 2021.98 322.751C2006.48 338.418 1987.81 350.585 1965.98 359.251C1944.31 367.751 1920.31 372.001 1893.98 372.001H1760.23V13.7513H1893.98C1920.31 13.7513 1944.31 18.0847 1965.98 26.7513C1987.81 35.2513 2006.48 47.418 2021.98 63.2513C2037.48 78.918 2049.48 97.7513 2057.98 119.751C2066.48 141.751 2070.73 166.168 2070.73 193.001ZM2020.98 193.001C2020.98 171.001 2017.98 151.335 2011.98 134.001C2005.98 116.668 1997.48 102.001 1986.48 90.0013C1975.48 78.0013 1962.15 68.8347 1946.48 62.5013C1930.81 56.168 1913.31 53.0013 1893.98 53.0013H1808.73V332.751H1893.98C1913.31 332.751 1930.81 329.585 1946.48 323.251C1962.15 316.918 1975.48 307.835 1986.48 296.001C1997.48 284.001 2005.98 269.335 2011.98 252.001C2017.98 234.668 2020.98 215.001 2020.98 193.001ZM2361.6 332.501L2361.35 372.001H2140.6V13.7513H2361.35V53.2513H2189.1V172.251H2328.6V210.251H2189.1V332.501H2361.6ZM2739.68 193.001C2739.68 219.835 2735.43 244.251 2726.93 266.251C2718.43 288.251 2706.43 307.085 2690.93 322.751C2675.43 338.418 2656.76 350.585 2634.93 359.251C2613.26 367.751 2589.26 372.001 2562.93 372.001H2429.18V13.7513H2562.93C2589.26 13.7513 2613.26 18.0847 2634.93 26.7513C2656.76 35.2513 2675.43 47.418 2690.93 63.2513C2706.43 78.918 2718.43 97.7513 2726.93 119.751C2735.43 141.751 2739.68 166.168 2739.68 193.001ZM2689.93 193.001C2689.93 171.001 2686.93 151.335 2680.93 134.001C2674.93 116.668 2666.43 102.001 2655.43 90.0013C2644.43 78.0013 2631.09 68.8347 2615.43 62.5013C2599.76 56.168 2582.26 53.0013 2562.93 53.0013H2477.68V332.751H2562.93C2582.26 332.751 2599.76 329.585 2615.43 323.251C2631.09 316.918 2644.43 307.835 2655.43 296.001C2666.43 284.001 2674.93 269.335 2680.93 252.001C2686.93 234.668 2689.93 215.001 2689.93 193.001ZM2990.03 239.001L2933.78 93.2513C2932.11 88.918 2930.36 83.918 2928.53 78.2513C2926.7 72.418 2924.95 66.2513 2923.28 59.7513C2919.78 73.2513 2916.2 84.5013 2912.53 93.5013L2856.28 239.001H2990.03ZM3091.03 372.001H3053.53C3049.2 372.001 3045.7 370.918 3043.03 368.751C3040.36 366.585 3038.36 363.835 3037.03 360.501L3003.53 274.001H2842.78L2809.28 360.501C2808.28 363.501 2806.36 366.168 2803.53 368.501C2800.7 370.835 2797.2 372.001 2793.03 372.001H2755.53L2898.78 13.7513H2947.78L3091.03 372.001ZM1487 613.751V972.001H1438.5V809.001H1245.25V972.001H1196.75V613.751H1245.25V773.501H1438.5V613.751H1487ZM1799.59 932.501L1799.34 972.001H1578.59V613.751H1799.34V653.251H1627.09V772.251H1766.59V810.251H1627.09V932.501H1799.59ZM2057.41 839.001L2001.16 693.251C1999.5 688.918 1997.75 683.918 1995.91 678.251C1994.08 672.418 1992.33 666.251 1990.66 659.751C1987.16 673.251 1983.58 684.501 1979.91 693.501L1923.66 839.001H2057.41ZM2158.41 972.001H2120.91C2116.58 972.001 2113.08 970.918 2110.41 968.751C2107.75 966.585 2105.75 963.835 2104.41 960.501L2070.91 874.001H1910.16L1876.66 960.501C1875.66 963.501 1873.75 966.168 1870.91 968.501C1868.08 970.835 1864.58 972.001 1860.41 972.001H1822.91L1966.16 613.751H2015.16L2158.41 972.001ZM2408.79 931.251V972.001H2205.54V613.751H2253.79V931.251H2408.79ZM2657.75 654.501H2541.75V972.001H2493.5V654.501H2377.25V613.751H2657.75V654.501ZM3001.16 613.751V972.001H2952.66V809.001H2759.41V972.001H2710.91V613.751H2759.41V773.501H2952.66V613.751H3001.16Z"/>
</mask>
<path d="M1330.27 13.7513V372.001H1281.77V209.001H1088.52V372.001H1040.02V13.7513H1088.52V173.501H1281.77V13.7513H1330.27ZM1612.1 239.001L1555.85 93.2513C1554.18 88.918 1552.43 83.918 1550.6 78.2513C1548.77 72.418 1547.02 66.2513 1545.35 59.7513C1541.85 73.2513 1538.27 84.5013 1534.6 93.5013L1478.35 239.001H1612.1ZM1713.1 372.001H1675.6C1671.27 372.001 1667.77 370.918 1665.1 368.751C1662.43 366.585 1660.43 363.835 1659.1 360.501L1625.6 274.001H1464.85L1431.35 360.501C1430.35 363.501 1428.43 366.168 1425.6 368.501C1422.77 370.835 1419.27 372.001 1415.1 372.001H1377.6L1520.85 13.7513H1569.85L1713.1 372.001ZM2070.73 193.001C2070.73 219.835 2066.48 244.251 2057.98 266.251C2049.48 288.251 2037.48 307.085 2021.98 322.751C2006.48 338.418 1987.81 350.585 1965.98 359.251C1944.31 367.751 1920.31 372.001 1893.98 372.001H1760.23V13.7513H1893.98C1920.31 13.7513 1944.31 18.0847 1965.98 26.7513C1987.81 35.2513 2006.48 47.418 2021.98 63.2513C2037.48 78.918 2049.48 97.7513 2057.98 119.751C2066.48 141.751 2070.73 166.168 2070.73 193.001ZM2020.98 193.001C2020.98 171.001 2017.98 151.335 2011.98 134.001C2005.98 116.668 1997.48 102.001 1986.48 90.0013C1975.48 78.0013 1962.15 68.8347 1946.48 62.5013C1930.81 56.168 1913.31 53.0013 1893.98 53.0013H1808.73V332.751H1893.98C1913.31 332.751 1930.81 329.585 1946.48 323.251C1962.15 316.918 1975.48 307.835 1986.48 296.001C1997.48 284.001 2005.98 269.335 2011.98 252.001C2017.98 234.668 2020.98 215.001 2020.98 193.001ZM2361.6 332.501L2361.35 372.001H2140.6V13.7513H2361.35V53.2513H2189.1V172.251H2328.6V210.251H2189.1V332.501H2361.6ZM2739.68 193.001C2739.68 219.835 2735.43 244.251 2726.93 266.251C2718.43 288.251 2706.43 307.085 2690.93 322.751C2675.43 338.418 2656.76 350.585 2634.93 359.251C2613.26 367.751 2589.26 372.001 2562.93 372.001H2429.18V13.7513H2562.93C2589.26 13.7513 2613.26 18.0847 2634.93 26.7513C2656.76 35.2513 2675.43 47.418 2690.93 63.2513C2706.43 78.918 2718.43 97.7513 2726.93 119.751C2735.43 141.751 2739.68 166.168 2739.68 193.001ZM2689.93 193.001C2689.93 171.001 2686.93 151.335 2680.93 134.001C2674.93 116.668 2666.43 102.001 2655.43 90.0013C2644.43 78.0013 2631.09 68.8347 2615.43 62.5013C2599.76 56.168 2582.26 53.0013 2562.93 53.0013H2477.68V332.751H2562.93C2582.26 332.751 2599.76 329.585 2615.43 323.251C2631.09 316.918 2644.43 307.835 2655.43 296.001C2666.43 284.001 2674.93 269.335 2680.93 252.001C2686.93 234.668 2689.93 215.001 2689.93 193.001ZM2990.03 239.001L2933.78 93.2513C2932.11 88.918 2930.36 83.918 2928.53 78.2513C2926.7 72.418 2924.95 66.2513 2923.28 59.7513C2919.78 73.2513 2916.2 84.5013 2912.53 93.5013L2856.28 239.001H2990.03ZM3091.03 372.001H3053.53C3049.2 372.001 3045.7 370.918 3043.03 368.751C3040.36 366.585 3038.36 363.835 3037.03 360.501L3003.53 274.001H2842.78L2809.28 360.501C2808.28 363.501 2806.36 366.168 2803.53 368.501C2800.7 370.835 2797.2 372.001 2793.03 372.001H2755.53L2898.78 13.7513H2947.78L3091.03 372.001ZM1487 613.751V972.001H1438.5V809.001H1245.25V972.001H1196.75V613.751H1245.25V773.501H1438.5V613.751H1487ZM1799.59 932.501L1799.34 972.001H1578.59V613.751H1799.34V653.251H1627.09V772.251H1766.59V810.251H1627.09V932.501H1799.59ZM2057.41 839.001L2001.16 693.251C1999.5 688.918 1997.75 683.918 1995.91 678.251C1994.08 672.418 1992.33 666.251 1990.66 659.751C1987.16 673.251 1983.58 684.501 1979.91 693.501L1923.66 839.001H2057.41ZM2158.41 972.001H2120.91C2116.58 972.001 2113.08 970.918 2110.41 968.751C2107.75 966.585 2105.75 963.835 2104.41 960.501L2070.91 874.001H1910.16L1876.66 960.501C1875.66 963.501 1873.75 966.168 1870.91 968.501C1868.08 970.835 1864.58 972.001 1860.41 972.001H1822.91L1966.16 613.751H2015.16L2158.41 972.001ZM2408.79 931.251V972.001H2205.54V613.751H2253.79V931.251H2408.79ZM2657.75 654.501H2541.75V972.001H2493.5V654.501H2377.25V613.751H2657.75V654.501ZM3001.16 613.751V972.001H2952.66V809.001H2759.41V972.001H2710.91V613.751H2759.41V773.501H2952.66V613.751H3001.16Z" fill="white"/>
<path d="M1330.27 13.7513H1331.27V12.7513H1330.27V13.7513ZM1330.27 372.001V373.001H1331.27V372.001H1330.27ZM1281.77 372.001H1280.77V373.001H1281.77V372.001ZM1281.77 209.001H1282.77V208.001H1281.77V209.001ZM1088.52 209.001V208.001H1087.52V209.001H1088.52ZM1088.52 372.001V373.001H1089.52V372.001H1088.52ZM1040.02 372.001H1039.02V373.001H1040.02V372.001ZM1040.02 13.7513V12.7513H1039.02V13.7513H1040.02ZM1088.52 13.7513H1089.52V12.7513H1088.52V13.7513ZM1088.52 173.501H1087.52V174.501H1088.52V173.501ZM1281.77 173.501V174.501H1282.77V173.501H1281.77ZM1281.77 13.7513V12.7513H1280.77V13.7513H1281.77ZM1330.27 13.7513H1329.27V372.001H1330.27H1331.27V13.7513H1330.27ZM1330.27 372.001V371.001H1281.77V372.001V373.001H1330.27V372.001ZM1281.77 372.001H1282.77V209.001H1281.77H1280.77V372.001H1281.77ZM1281.77 209.001V208.001H1088.52V209.001V210.001H1281.77V209.001ZM1088.52 209.001H1087.52V372.001H1088.52H1089.52V209.001H1088.52ZM1088.52 372.001V371.001H1040.02V372.001V373.001H1088.52V372.001ZM1040.02 372.001H1041.02V13.7513H1040.02H1039.02V372.001H1040.02ZM1040.02 13.7513V14.7513H1088.52V13.7513V12.7513H1040.02V13.7513ZM1088.52 13.7513H1087.52V173.501H1088.52H1089.52V13.7513H1088.52ZM1088.52 173.501V174.501H1281.77V173.501V172.501H1088.52V173.501ZM1281.77 173.501H1282.77V13.7513H1281.77H1280.77V173.501H1281.77ZM1281.77 13.7513V14.7513H1330.27V13.7513V12.7513H1281.77V13.7513ZM1612.1 239.001V240.001H1613.56L1613.03 238.641L1612.1 239.001ZM1555.85 93.2513L1554.92 93.6103L1554.92 93.6114L1555.85 93.2513ZM1550.6 78.2513L1549.65 78.5512L1549.65 78.5591L1550.6 78.2513ZM1545.35 59.7513L1546.32 59.5029L1544.38 59.5004L1545.35 59.7513ZM1534.6 93.5013L1533.68 93.124L1533.67 93.1324L1533.67 93.1407L1534.6 93.5013ZM1478.35 239.001L1477.42 238.641L1476.89 240.001H1478.35V239.001ZM1713.1 372.001V373.001H1714.58L1714.03 371.63L1713.1 372.001ZM1665.1 368.751L1664.47 369.527V369.527L1665.1 368.751ZM1659.1 360.501L1658.17 360.863L1658.17 360.873L1659.1 360.501ZM1625.6 274.001L1626.53 273.64L1626.29 273.001H1625.6V274.001ZM1464.85 274.001V273.001H1464.17L1463.92 273.64L1464.85 274.001ZM1431.35 360.501L1430.42 360.14L1430.41 360.162L1430.4 360.185L1431.35 360.501ZM1425.6 368.501L1426.24 369.273V369.273L1425.6 368.501ZM1377.6 372.001L1376.67 371.63L1376.12 373.001H1377.6V372.001ZM1520.85 13.7513V12.7513H1520.17L1519.92 13.38L1520.85 13.7513ZM1569.85 13.7513L1570.78 13.38L1570.53 12.7513H1569.85V13.7513ZM1612.1 239.001L1613.03 238.641L1556.78 92.8913L1555.85 93.2513L1554.92 93.6114L1611.17 239.361L1612.1 239.001ZM1555.85 93.2513L1556.78 92.8924C1555.13 88.5798 1553.38 83.5975 1551.55 77.9435L1550.6 78.2513L1549.65 78.5591C1551.49 84.2385 1553.24 89.2562 1554.92 93.6103L1555.85 93.2513ZM1550.6 78.2513L1551.56 77.9515C1549.73 72.1367 1547.98 65.9873 1546.32 59.5029L1545.35 59.7513L1544.38 59.9997C1546.05 66.5153 1547.81 72.6993 1549.65 78.5511L1550.6 78.2513ZM1545.35 59.7513L1544.38 59.5004C1540.89 72.9742 1537.32 84.1786 1533.68 93.124L1534.6 93.5013L1535.53 93.8786C1539.22 84.8241 1542.81 73.5285 1546.32 60.0023L1545.35 59.7513ZM1534.6 93.5013L1533.67 93.1407L1477.42 238.641L1478.35 239.001L1479.28 239.362L1535.53 93.8619L1534.6 93.5013ZM1478.35 239.001V240.001H1612.1V239.001V238.001H1478.35V239.001ZM1713.1 372.001V371.001H1675.6V372.001V373.001H1713.1V372.001ZM1675.6 372.001V371.001C1671.44 371.001 1668.18 369.963 1665.73 367.975L1665.1 368.751L1664.47 369.527C1667.36 371.873 1671.1 373.001 1675.6 373.001V372.001ZM1665.1 368.751L1665.73 367.975C1663.2 365.921 1661.3 363.313 1660.03 360.13L1659.1 360.501L1658.17 360.873C1659.57 364.357 1661.67 367.249 1664.47 369.527L1665.1 368.751ZM1659.1 360.501L1660.03 360.14L1626.53 273.64L1625.6 274.001L1624.67 274.362L1658.17 360.862L1659.1 360.501ZM1625.6 274.001V273.001H1464.85V274.001V275.001H1625.6V274.001ZM1464.85 274.001L1463.92 273.64L1430.42 360.14L1431.35 360.501L1432.28 360.862L1465.78 274.362L1464.85 274.001ZM1431.35 360.501L1430.4 360.185C1429.47 362.98 1427.68 365.496 1424.97 367.729L1425.6 368.501L1426.24 369.273C1429.19 366.84 1431.23 364.023 1432.3 360.818L1431.35 360.501ZM1425.6 368.501L1424.97 367.729C1422.34 369.896 1419.07 371.001 1415.1 371.001V372.001V373.001C1419.47 373.001 1423.2 371.774 1426.24 369.273L1425.6 368.501ZM1415.1 372.001V371.001H1377.6V372.001V373.001H1415.1V372.001ZM1377.6 372.001L1378.53 372.373L1521.78 14.1226L1520.85 13.7513L1519.92 13.38L1376.67 371.63L1377.6 372.001ZM1520.85 13.7513V14.7513H1569.85V13.7513V12.7513H1520.85V13.7513ZM1569.85 13.7513L1568.92 14.1226L1712.17 372.373L1713.1 372.001L1714.03 371.63L1570.78 13.38L1569.85 13.7513ZM2021.98 322.751L2021.27 322.048V322.048L2021.98 322.751ZM1965.98 359.251L1966.35 360.182L1966.35 360.181L1965.98 359.251ZM1760.23 372.001H1759.23V373.001H1760.23V372.001ZM1760.23 13.7513V12.7513H1759.23V13.7513H1760.23ZM1965.98 26.7513L1965.61 27.6799L1965.62 27.6832L1965.98 26.7513ZM2021.98 63.2513L2021.27 63.9509L2021.27 63.9547L2021.98 63.2513ZM2057.98 119.751L2058.91 119.391V119.391L2057.98 119.751ZM1946.48 62.5013L1946.11 63.4285V63.4285L1946.48 62.5013ZM1808.73 53.0013V52.0013H1807.73V53.0013H1808.73ZM1808.73 332.751H1807.73V333.751H1808.73V332.751ZM1946.48 323.251L1946.11 322.324V322.324L1946.48 323.251ZM1986.48 296.001L1987.21 296.682L1987.22 296.677L1986.48 296.001ZM2011.98 252.001L2012.93 252.328V252.328L2011.98 252.001ZM2070.73 193.001H2069.73C2069.73 219.728 2065.5 244.021 2057.05 265.891L2057.98 266.251L2058.91 266.612C2067.46 244.482 2071.73 219.941 2071.73 193.001H2070.73ZM2057.98 266.251L2057.05 265.891C2048.59 287.772 2036.67 306.486 2021.27 322.048L2021.98 322.751L2022.69 323.455C2038.29 307.683 2050.37 288.731 2058.91 266.612L2057.98 266.251ZM2021.98 322.751L2021.27 322.048C2005.87 337.61 1987.32 349.703 1965.61 358.322L1965.98 359.251L1966.35 360.181C1988.3 351.467 2007.09 339.226 2022.69 323.455L2021.98 322.751ZM1965.98 359.251L1965.61 358.32C1944.08 366.769 1920.2 371.001 1893.98 371.001V372.001V373.001C1920.42 373.001 1944.55 368.734 1966.35 360.182L1965.98 359.251ZM1893.98 372.001V371.001H1760.23V372.001V373.001H1893.98V372.001ZM1760.23 372.001H1761.23V13.7513H1760.23H1759.23V372.001H1760.23ZM1760.23 13.7513V14.7513H1893.98V13.7513V12.7513H1760.23V13.7513ZM1893.98 13.7513V14.7513C1920.2 14.7513 1944.07 19.0661 1965.61 27.6798L1965.98 26.7513L1966.35 25.8229C1944.55 17.1033 1920.42 12.7513 1893.98 12.7513V13.7513ZM1965.98 26.7513L1965.62 27.6832C1987.33 36.1347 2005.87 48.2249 2021.27 63.9509L2021.98 63.2513L2022.69 62.5518C2007.09 46.6111 1988.3 34.368 1966.34 25.8195L1965.98 26.7513ZM2021.98 63.2513L2021.27 63.9547C2036.67 79.5168 2048.59 98.231 2057.05 120.112L2057.98 119.751L2058.91 119.391C2050.37 97.2717 2038.29 78.3192 2022.69 62.548L2021.98 63.2513ZM2057.98 119.751L2057.05 120.112C2065.5 141.982 2069.73 166.274 2069.73 193.001H2070.73H2071.73C2071.73 166.062 2067.46 141.521 2058.91 119.391L2057.98 119.751ZM2020.98 193.001H2021.98C2021.98 170.912 2018.97 151.131 2012.93 133.674L2011.98 134.001L2011.04 134.328C2016.99 151.538 2019.98 171.091 2019.98 193.001H2020.98ZM2011.98 134.001L2012.93 133.674C2006.89 116.228 1998.32 101.438 1987.22 89.3256L1986.48 90.0013L1985.74 90.6771C1996.64 102.564 2005.07 117.108 2011.04 134.328L2011.98 134.001ZM1986.48 90.0013L1987.22 89.3256C1976.11 77.2117 1962.65 67.9612 1946.85 61.5742L1946.48 62.5013L1946.11 63.4285C1961.64 69.7082 1974.85 78.791 1985.74 90.6771L1986.48 90.0013ZM1946.48 62.5013L1946.85 61.5742C1931.05 55.1863 1913.42 52.0013 1893.98 52.0013V53.0013V54.0013C1913.2 54.0013 1930.57 57.1497 1946.11 63.4285L1946.48 62.5013ZM1893.98 53.0013V52.0013H1808.73V53.0013V54.0013H1893.98V53.0013ZM1808.73 53.0013H1807.73V332.751H1808.73H1809.73V53.0013H1808.73ZM1808.73 332.751V333.751H1893.98V332.751V331.751H1808.73V332.751ZM1893.98 332.751V333.751C1913.42 333.751 1931.05 330.566 1946.85 324.178L1946.48 323.251L1946.11 322.324C1930.57 328.603 1913.2 331.751 1893.98 331.751V332.751ZM1946.48 323.251L1946.85 324.178C1962.65 317.793 1976.11 308.628 1987.21 296.682L1986.48 296.001L1985.75 295.32C1974.85 307.042 1961.64 316.043 1946.11 322.324L1946.48 323.251ZM1986.48 296.001L1987.22 296.677C1998.32 284.564 2006.89 269.775 2012.93 252.328L2011.98 252.001L2011.04 251.674C2005.07 268.895 1996.64 283.438 1985.74 295.326L1986.48 296.001ZM2011.98 252.001L2012.93 252.328C2018.97 234.871 2021.98 215.091 2021.98 193.001H2020.98H2019.98C2019.98 214.912 2016.99 234.465 2011.04 251.674L2011.98 252.001ZM2361.6 332.501L2362.6 332.508L2362.61 331.501H2361.6V332.501ZM2361.35 372.001V373.001H2362.34L2362.35 372.008L2361.35 372.001ZM2140.6 372.001H2139.6V373.001H2140.6V372.001ZM2140.6 13.7513V12.7513H2139.6V13.7513H2140.6ZM2361.35 13.7513H2362.35V12.7513H2361.35V13.7513ZM2361.35 53.2513V54.2513H2362.35V53.2513H2361.35ZM2189.1 53.2513V52.2513H2188.1V53.2513H2189.1ZM2189.1 172.251H2188.1V173.251H2189.1V172.251ZM2328.6 172.251H2329.6V171.251H2328.6V172.251ZM2328.6 210.251V211.251H2329.6V210.251H2328.6ZM2189.1 210.251V209.251H2188.1V210.251H2189.1ZM2189.1 332.501H2188.1V333.501H2189.1V332.501ZM2361.6 332.501L2360.6 332.495L2360.35 371.995L2361.35 372.001L2362.35 372.008L2362.6 332.508L2361.6 332.501ZM2361.35 372.001V371.001H2140.6V372.001V373.001H2361.35V372.001ZM2140.6 372.001H2141.6V13.7513H2140.6H2139.6V372.001H2140.6ZM2140.6 13.7513V14.7513H2361.35V13.7513V12.7513H2140.6V13.7513ZM2361.35 13.7513H2360.35V53.2513H2361.35H2362.35V13.7513H2361.35ZM2361.35 53.2513V52.2513H2189.1V53.2513V54.2513H2361.35V53.2513ZM2189.1 53.2513H2188.1V172.251H2189.1H2190.1V53.2513H2189.1ZM2189.1 172.251V173.251H2328.6V172.251V171.251H2189.1V172.251ZM2328.6 172.251H2327.6V210.251H2328.6H2329.6V172.251H2328.6ZM2328.6 210.251V209.251H2189.1V210.251V211.251H2328.6V210.251ZM2189.1 210.251H2188.1V332.501H2189.1H2190.1V210.251H2189.1ZM2189.1 332.501V333.501H2361.6V332.501V331.501H2189.1V332.501ZM2690.93 322.751L2690.21 322.048V322.048L2690.93 322.751ZM2634.93 359.251L2635.29 360.182L2635.29 360.181L2634.93 359.251ZM2429.18 372.001H2428.18V373.001H2429.18V372.001ZM2429.18 13.7513V12.7513H2428.18V13.7513H2429.18ZM2634.93 26.7513L2634.55 27.6799L2634.56 27.6832L2634.93 26.7513ZM2690.93 63.2513L2690.21 63.9509L2690.21 63.9547L2690.93 63.2513ZM2726.93 119.751L2727.86 119.391V119.391L2726.93 119.751ZM2615.43 62.5013L2615.05 63.4285V63.4285L2615.43 62.5013ZM2477.68 53.0013V52.0013H2476.68V53.0013H2477.68ZM2477.68 332.751H2476.68V333.751H2477.68V332.751ZM2615.43 323.251L2615.05 322.324V322.324L2615.43 323.251ZM2655.43 296.001L2656.16 296.682L2656.16 296.677L2655.43 296.001ZM2680.93 252.001L2681.87 252.328V252.328L2680.93 252.001ZM2739.68 193.001H2738.68C2738.68 219.728 2734.44 244.021 2725.99 265.891L2726.93 266.251L2727.86 266.612C2736.41 244.482 2740.68 219.941 2740.68 193.001H2739.68ZM2726.93 266.251L2725.99 265.891C2717.54 287.772 2705.61 306.486 2690.21 322.048L2690.93 322.751L2691.64 323.455C2707.24 307.683 2719.31 288.731 2727.86 266.612L2726.93 266.251ZM2690.93 322.751L2690.21 322.048C2674.82 337.61 2656.27 349.703 2634.56 358.322L2634.93 359.251L2635.29 360.181C2657.25 351.467 2676.03 339.226 2691.64 323.455L2690.93 322.751ZM2634.93 359.251L2634.56 358.32C2613.02 366.769 2589.15 371.001 2562.93 371.001V372.001V373.001C2589.37 373.001 2613.49 368.734 2635.29 360.182L2634.93 359.251ZM2562.93 372.001V371.001H2429.18V372.001V373.001H2562.93V372.001ZM2429.18 372.001H2430.18V13.7513H2429.18H2428.18V372.001H2429.18ZM2429.18 13.7513V14.7513H2562.93V13.7513V12.7513H2429.18V13.7513ZM2562.93 13.7513V14.7513C2589.15 14.7513 2613.02 19.0661 2634.55 27.6798L2634.93 26.7513L2635.3 25.8229C2613.5 17.1033 2589.37 12.7513 2562.93 12.7513V13.7513ZM2634.93 26.7513L2634.56 27.6832C2656.27 36.1347 2674.82 48.2249 2690.21 63.9509L2690.93 63.2513L2691.64 62.5518C2676.04 46.6111 2657.25 34.368 2635.29 25.8195L2634.93 26.7513ZM2690.93 63.2513L2690.21 63.9547C2705.61 79.5168 2717.54 98.231 2725.99 120.112L2726.93 119.751L2727.86 119.391C2719.31 97.2717 2707.24 78.3192 2691.64 62.548L2690.93 63.2513ZM2726.93 119.751L2725.99 120.112C2734.44 141.982 2738.68 166.274 2738.68 193.001H2739.68H2740.68C2740.68 166.062 2736.41 141.521 2727.86 119.391L2726.93 119.751ZM2689.93 193.001H2690.93C2690.93 170.912 2687.91 151.131 2681.87 133.674L2680.93 134.001L2679.98 134.328C2685.94 151.538 2688.93 171.091 2688.93 193.001H2689.93ZM2680.93 134.001L2681.87 133.674C2675.83 116.228 2667.27 101.438 2656.16 89.3256L2655.43 90.0013L2654.69 90.6771C2665.58 102.564 2674.02 117.108 2679.98 134.328L2680.93 134.001ZM2655.43 90.0013L2656.16 89.3256C2645.06 77.2117 2631.6 67.9612 2615.8 61.5742L2615.43 62.5013L2615.05 63.4285C2630.58 69.7082 2643.79 78.791 2654.69 90.6771L2655.43 90.0013ZM2615.43 62.5013L2615.8 61.5742C2600 55.1863 2582.37 52.0013 2562.93 52.0013V53.0013V54.0013C2582.15 54.0013 2599.52 57.1497 2615.05 63.4285L2615.43 62.5013ZM2562.93 53.0013V52.0013H2477.68V53.0013V54.0013H2562.93V53.0013ZM2477.68 53.0013H2476.68V332.751H2477.68H2478.68V53.0013H2477.68ZM2477.68 332.751V333.751H2562.93V332.751V331.751H2477.68V332.751ZM2562.93 332.751V333.751C2582.37 333.751 2600 330.566 2615.8 324.178L2615.43 323.251L2615.05 322.324C2599.52 328.603 2582.15 331.751 2562.93 331.751V332.751ZM2615.43 323.251L2615.8 324.178C2631.6 317.793 2645.05 308.628 2656.16 296.682L2655.43 296.001L2654.69 295.32C2643.8 307.042 2630.59 316.043 2615.05 322.324L2615.43 323.251ZM2655.43 296.001L2656.16 296.677C2667.27 284.564 2675.83 269.775 2681.87 252.328L2680.93 252.001L2679.98 251.674C2674.02 268.895 2665.58 283.438 2654.69 295.326L2655.43 296.001ZM2680.93 252.001L2681.87 252.328C2687.91 234.871 2690.93 215.091 2690.93 193.001H2689.93H2688.93C2688.93 214.912 2685.94 234.465 2679.98 251.674L2680.93 252.001ZM2990.03 239.001V240.001H2991.49L2990.96 238.641L2990.03 239.001ZM2933.78 93.2513L2932.85 93.6103L2932.85 93.6114L2933.78 93.2513ZM2928.53 78.2513L2927.58 78.5512L2927.58 78.5591L2928.53 78.2513ZM2923.28 59.7513L2924.25 59.5029L2922.31 59.5004L2923.28 59.7513ZM2912.53 93.5013L2911.6 93.124L2911.6 93.1324L2911.6 93.1407L2912.53 93.5013ZM2856.28 239.001L2855.35 238.641L2854.82 240.001H2856.28V239.001ZM3091.03 372.001V373.001H3092.51L3091.96 371.63L3091.03 372.001ZM3043.03 368.751L3042.4 369.527V369.527L3043.03 368.751ZM3037.03 360.501L3036.1 360.863L3036.1 360.873L3037.03 360.501ZM3003.53 274.001L3004.46 273.64L3004.22 273.001H3003.53V274.001ZM2842.78 274.001V273.001H2842.1L2841.85 273.64L2842.78 274.001ZM2809.28 360.501L2808.35 360.14L2808.34 360.162L2808.33 360.185L2809.28 360.501ZM2803.53 368.501L2804.17 369.273V369.273L2803.53 368.501ZM2755.53 372.001L2754.6 371.63L2754.05 373.001H2755.53V372.001ZM2898.78 13.7513V12.7513H2898.1L2897.85 13.38L2898.78 13.7513ZM2947.78 13.7513L2948.71 13.38L2948.46 12.7513H2947.78V13.7513ZM2990.03 239.001L2990.96 238.641L2934.71 92.8913L2933.78 93.2513L2932.85 93.6114L2989.1 239.361L2990.03 239.001ZM2933.78 93.2513L2934.71 92.8924C2933.06 88.5798 2931.31 83.5975 2929.48 77.9435L2928.53 78.2513L2927.58 78.5591C2929.42 84.2385 2931.17 89.2562 2932.85 93.6103L2933.78 93.2513ZM2928.53 78.2513L2929.48 77.9515C2927.66 72.1367 2925.91 65.9873 2924.25 59.5029L2923.28 59.7513L2922.31 59.9997C2923.98 66.5153 2925.74 72.6993 2927.58 78.5511L2928.53 78.2513ZM2923.28 59.7513L2922.31 59.5004C2918.82 72.9742 2915.25 84.1786 2911.6 93.124L2912.53 93.5013L2913.46 93.8786C2917.15 84.8241 2920.74 73.5285 2924.25 60.0023L2923.28 59.7513ZM2912.53 93.5013L2911.6 93.1407L2855.35 238.641L2856.28 239.001L2857.21 239.362L2913.46 93.8619L2912.53 93.5013ZM2856.28 239.001V240.001H2990.03V239.001V238.001H2856.28V239.001ZM3091.03 372.001V371.001H3053.53V372.001V373.001H3091.03V372.001ZM3053.53 372.001V371.001C3049.37 371.001 3046.11 369.963 3043.66 367.975L3043.03 368.751L3042.4 369.527C3045.29 371.873 3049.03 373.001 3053.53 373.001V372.001ZM3043.03 368.751L3043.66 367.975C3041.13 365.921 3039.23 363.313 3037.96 360.13L3037.03 360.501L3036.1 360.873C3037.5 364.357 3039.6 367.249 3042.4 369.527L3043.03 368.751ZM3037.03 360.501L3037.96 360.14L3004.46 273.64L3003.53 274.001L3002.6 274.362L3036.1 360.862L3037.03 360.501ZM3003.53 274.001V273.001H2842.78V274.001V275.001H3003.53V274.001ZM2842.78 274.001L2841.85 273.64L2808.35 360.14L2809.28 360.501L2810.21 360.862L2843.71 274.362L2842.78 274.001ZM2809.28 360.501L2808.33 360.185C2807.4 362.98 2805.61 365.496 2802.9 367.729L2803.53 368.501L2804.17 369.273C2807.12 366.84 2809.16 364.023 2810.23 360.818L2809.28 360.501ZM2803.53 368.501L2802.9 367.729C2800.27 369.896 2797 371.001 2793.03 371.001V372.001V373.001C2797.4 373.001 2801.13 371.774 2804.17 369.273L2803.53 368.501ZM2793.03 372.001V371.001H2755.53V372.001V373.001H2793.03V372.001ZM2755.53 372.001L2756.46 372.373L2899.71 14.1226L2898.78 13.7513L2897.85 13.38L2754.6 371.63L2755.53 372.001ZM2898.78 13.7513V14.7513H2947.78V13.7513V12.7513H2898.78V13.7513ZM2947.78 13.7513L2946.85 14.1226L3090.1 372.373L3091.03 372.001L3091.96 371.63L2948.71 13.38L2947.78 13.7513ZM1487 613.751H1488V612.751H1487V613.751ZM1487 972.001V973.001H1488V972.001H1487ZM1438.5 972.001H1437.5V973.001H1438.5V972.001ZM1438.5 809.001H1439.5V808.001H1438.5V809.001ZM1245.25 809.001V808.001H1244.25V809.001H1245.25ZM1245.25 972.001V973.001H1246.25V972.001H1245.25ZM1196.75 972.001H1195.75V973.001H1196.75V972.001ZM1196.75 613.751V612.751H1195.75V613.751H1196.75ZM1245.25 613.751H1246.25V612.751H1245.25V613.751ZM1245.25 773.501H1244.25V774.501H1245.25V773.501ZM1438.5 773.501V774.501H1439.5V773.501H1438.5ZM1438.5 613.751V612.751H1437.5V613.751H1438.5ZM1487 613.751H1486V972.001H1487H1488V613.751H1487ZM1487 972.001V971.001H1438.5V972.001V973.001H1487V972.001ZM1438.5 972.001H1439.5V809.001H1438.5H1437.5V972.001H1438.5ZM1438.5 809.001V808.001H1245.25V809.001V810.001H1438.5V809.001ZM1245.25 809.001H1244.25V972.001H1245.25H1246.25V809.001H1245.25ZM1245.25 972.001V971.001H1196.75V972.001V973.001H1245.25V972.001ZM1196.75 972.001H1197.75V613.751H1196.75H1195.75V972.001H1196.75ZM1196.75 613.751V614.751H1245.25V613.751V612.751H1196.75V613.751ZM1245.25 613.751H1244.25V773.501H1245.25H1246.25V613.751H1245.25ZM1245.25 773.501V774.501H1438.5V773.501V772.501H1245.25V773.501ZM1438.5 773.501H1439.5V613.751H1438.5H1437.5V773.501H1438.5ZM1438.5 613.751V614.751H1487V613.751V612.751H1438.5V613.751ZM1799.59 932.501L1800.59 932.508L1800.6 931.501H1799.59V932.501ZM1799.34 972.001V973.001H1800.33L1800.34 972.008L1799.34 972.001ZM1578.59 972.001H1577.59V973.001H1578.59V972.001ZM1578.59 613.751V612.751H1577.59V613.751H1578.59ZM1799.34 613.751H1800.34V612.751H1799.34V613.751ZM1799.34 653.251V654.251H1800.34V653.251H1799.34ZM1627.09 653.251V652.251H1626.09V653.251H1627.09ZM1627.09 772.251H1626.09V773.251H1627.09V772.251ZM1766.59 772.251H1767.59V771.251H1766.59V772.251ZM1766.59 810.251V811.251H1767.59V810.251H1766.59ZM1627.09 810.251V809.251H1626.09V810.251H1627.09ZM1627.09 932.501H1626.09V933.501H1627.09V932.501ZM1799.59 932.501L1798.59 932.495L1798.34 971.995L1799.34 972.001L1800.34 972.008L1800.59 932.508L1799.59 932.501ZM1799.34 972.001V971.001H1578.59V972.001V973.001H1799.34V972.001ZM1578.59 972.001H1579.59V613.751H1578.59H1577.59V972.001H1578.59ZM1578.59 613.751V614.751H1799.34V613.751V612.751H1578.59V613.751ZM1799.34 613.751H1798.34V653.251H1799.34H1800.34V613.751H1799.34ZM1799.34 653.251V652.251H1627.09V653.251V654.251H1799.34V653.251ZM1627.09 653.251H1626.09V772.251H1627.09H1628.09V653.251H1627.09ZM1627.09 772.251V773.251H1766.59V772.251V771.251H1627.09V772.251ZM1766.59 772.251H1765.59V810.251H1766.59H1767.59V772.251H1766.59ZM1766.59 810.251V809.251H1627.09V810.251V811.251H1766.59V810.251ZM1627.09 810.251H1626.09V932.501H1627.09H1628.09V810.251H1627.09ZM1627.09 932.501V933.501H1799.59V932.501V931.501H1627.09V932.501ZM2057.41 839.001V840.001H2058.87L2058.35 838.641L2057.41 839.001ZM2001.16 693.251L2000.23 693.61L2000.23 693.611L2001.16 693.251ZM1995.91 678.251L1994.96 678.551L1994.96 678.559L1995.91 678.251ZM1990.66 659.751L1991.63 659.503L1989.7 659.5L1990.66 659.751ZM1979.91 693.501L1978.99 693.124L1978.98 693.132L1978.98 693.141L1979.91 693.501ZM1923.66 839.001L1922.73 838.641L1922.2 840.001H1923.66V839.001ZM2158.41 972.001V973.001H2159.89L2159.34 971.63L2158.41 972.001ZM2110.41 968.751L2109.78 969.527V969.527L2110.41 968.751ZM2104.41 960.501L2103.48 960.863L2103.49 960.873L2104.41 960.501ZM2070.91 874.001L2071.85 873.64L2071.6 873.001H2070.91V874.001ZM1910.16 874.001V873.001H1909.48L1909.23 873.64L1910.16 874.001ZM1876.66 960.501L1875.73 960.14L1875.72 960.162L1875.71 960.185L1876.66 960.501ZM1870.91 968.501L1871.55 969.273V969.273L1870.91 968.501ZM1822.91 972.001L1821.99 971.63L1821.44 973.001H1822.91V972.001ZM1966.16 613.751V612.751H1965.49L1965.24 613.38L1966.16 613.751ZM2015.16 613.751L2016.09 613.38L2015.84 612.751H2015.16V613.751ZM2057.41 839.001L2058.35 838.641L2002.1 692.891L2001.16 693.251L2000.23 693.611L2056.48 839.361L2057.41 839.001ZM2001.16 693.251L2002.1 692.892C2000.44 688.58 1998.69 683.597 1996.87 677.943L1995.91 678.251L1994.96 678.559C1996.8 684.239 1998.56 689.256 2000.23 693.61L2001.16 693.251ZM1995.91 678.251L1996.87 677.951C1995.04 672.137 1993.3 665.987 1991.63 659.503L1990.66 659.751L1989.7 660C1991.37 666.515 1993.12 672.699 1994.96 678.551L1995.91 678.251ZM1990.66 659.751L1989.7 659.5C1986.2 672.974 1982.63 684.179 1978.99 693.124L1979.91 693.501L1980.84 693.879C1984.53 684.824 1988.12 673.529 1991.63 660.002L1990.66 659.751ZM1979.91 693.501L1978.98 693.141L1922.73 838.641L1923.66 839.001L1924.6 839.362L1980.85 693.862L1979.91 693.501ZM1923.66 839.001V840.001H2057.41V839.001V838.001H1923.66V839.001ZM2158.41 972.001V971.001H2120.91V972.001V973.001H2158.41V972.001ZM2120.91 972.001V971.001C2116.75 971.001 2113.49 969.963 2111.04 967.975L2110.41 968.751L2109.78 969.527C2112.67 971.873 2116.41 973.001 2120.91 973.001V972.001ZM2110.41 968.751L2111.04 967.975C2108.52 965.921 2106.62 963.313 2105.34 960.13L2104.41 960.501L2103.49 960.873C2104.88 964.357 2106.98 967.249 2109.78 969.527L2110.41 968.751ZM2104.41 960.501L2105.35 960.14L2071.85 873.64L2070.91 874.001L2069.98 874.362L2103.48 960.862L2104.41 960.501ZM2070.91 874.001V873.001H1910.16V874.001V875.001H2070.91V874.001ZM1910.16 874.001L1909.23 873.64L1875.73 960.14L1876.66 960.501L1877.6 960.862L1911.1 874.362L1910.16 874.001ZM1876.66 960.501L1875.71 960.185C1874.78 962.98 1872.99 965.496 1870.28 967.729L1870.91 968.501L1871.55 969.273C1874.5 966.84 1876.54 964.023 1877.61 960.818L1876.66 960.501ZM1870.91 968.501L1870.28 967.729C1867.65 969.896 1864.38 971.001 1860.41 971.001V972.001V973.001C1864.78 973.001 1868.51 971.774 1871.55 969.273L1870.91 968.501ZM1860.41 972.001V971.001H1822.91V972.001V973.001H1860.41V972.001ZM1822.91 972.001L1823.84 972.373L1967.09 614.123L1966.16 613.751L1965.24 613.38L1821.99 971.63L1822.91 972.001ZM1966.16 613.751V614.751H2015.16V613.751V612.751H1966.16V613.751ZM2015.16 613.751L2014.24 614.123L2157.49 972.373L2158.41 972.001L2159.34 971.63L2016.09 613.38L2015.16 613.751ZM2408.79 931.251H2409.79V930.251H2408.79V931.251ZM2408.79 972.001V973.001H2409.79V972.001H2408.79ZM2205.54 972.001H2204.54V973.001H2205.54V972.001ZM2205.54 613.751V612.751H2204.54V613.751H2205.54ZM2253.79 613.751H2254.79V612.751H2253.79V613.751ZM2253.79 931.251H2252.79V932.251H2253.79V931.251ZM2408.79 931.251H2407.79V972.001H2408.79H2409.79V931.251H2408.79ZM2408.79 972.001V971.001H2205.54V972.001V973.001H2408.79V972.001ZM2205.54 972.001H2206.54V613.751H2205.54H2204.54V972.001H2205.54ZM2205.54 613.751V614.751H2253.79V613.751V612.751H2205.54V613.751ZM2253.79 613.751H2252.79V931.251H2253.79H2254.79V613.751H2253.79ZM2253.79 931.251V932.251H2408.79V931.251V930.251H2253.79V931.251ZM2657.75 654.501V655.501H2658.75V654.501H2657.75ZM2541.75 654.501V653.501H2540.75V654.501H2541.75ZM2541.75 972.001V973.001H2542.75V972.001H2541.75ZM2493.5 972.001H2492.5V973.001H2493.5V972.001ZM2493.5 654.501H2494.5V653.501H2493.5V654.501ZM2377.25 654.501H2376.25V655.501H2377.25V654.501ZM2377.25 613.751V612.751H2376.25V613.751H2377.25ZM2657.75 613.751H2658.75V612.751H2657.75V613.751ZM2657.75 654.501V653.501H2541.75V654.501V655.501H2657.75V654.501ZM2541.75 654.501H2540.75V972.001H2541.75H2542.75V654.501H2541.75ZM2541.75 972.001V971.001H2493.5V972.001V973.001H2541.75V972.001ZM2493.5 972.001H2494.5V654.501H2493.5H2492.5V972.001H2493.5ZM2493.5 654.501V653.501H2377.25V654.501V655.501H2493.5V654.501ZM2377.25 654.501H2378.25V613.751H2377.25H2376.25V654.501H2377.25ZM2377.25 613.751V614.751H2657.75V613.751V612.751H2377.25V613.751ZM2657.75 613.751H2656.75V654.501H2657.75H2658.75V613.751H2657.75ZM3001.16 613.751H3002.16V612.751H3001.16V613.751ZM3001.16 972.001V973.001H3002.16V972.001H3001.16ZM2952.66 972.001H2951.66V973.001H2952.66V972.001ZM2952.66 809.001H2953.66V808.001H2952.66V809.001ZM2759.41 809.001V808.001H2758.41V809.001H2759.41ZM2759.41 972.001V973.001H2760.41V972.001H2759.41ZM2710.91 972.001H2709.91V973.001H2710.91V972.001ZM2710.91 613.751V612.751H2709.91V613.751H2710.91ZM2759.41 613.751H2760.41V612.751H2759.41V613.751ZM2759.41 773.501H2758.41V774.501H2759.41V773.501ZM2952.66 773.501V774.501H2953.66V773.501H2952.66ZM2952.66 613.751V612.751H2951.66V613.751H2952.66ZM3001.16 613.751H3000.16V972.001H3001.16H3002.16V613.751H3001.16ZM3001.16 972.001V971.001H2952.66V972.001V973.001H3001.16V972.001ZM2952.66 972.001H2953.66V809.001H2952.66H2951.66V972.001H2952.66ZM2952.66 809.001V808.001H2759.41V809.001V810.001H2952.66V809.001ZM2759.41 809.001H2758.41V972.001H2759.41H2760.41V809.001H2759.41ZM2759.41 972.001V971.001H2710.91V972.001V973.001H2759.41V972.001ZM2710.91 972.001H2711.91V613.751H2710.91H2709.91V972.001H2710.91ZM2710.91 613.751V614.751H2759.41V613.751V612.751H2710.91V613.751ZM2759.41 613.751H2758.41V773.501H2759.41H2760.41V613.751H2759.41ZM2759.41 773.501V774.501H2952.66V773.501V772.501H2759.41V773.501ZM2952.66 773.501H2953.66V613.751H2952.66H2951.66V773.501H2952.66ZM2952.66 613.751V614.751H3001.16V613.751V612.751H2952.66V613.751Z" fill="white" mask="url(#path-2-outside-1_4_8)"/>
</svg>
