<svg width="1436" height="1765" viewBox="0 0 1436 1765" fill="none" xmlns="http://www.w3.org/2000/svg">
<circle cx="786.566" cy="500" r="500" fill="#2D6356"/>
<path d="M1159.57 366.183C1141.43 291.315 1075.54 189.88 926.214 166.937C818.002 -9.367 642.081 147.012 739.412 244.22C789.226 289.256 817.155 314.506 866.969 359.542C984.644 477.069 941.105 617.598 804.702 689.574M739.412 912V716.376C763.004 709.084 784.838 700.056 804.702 689.574M804.702 689.574V912M413.566 661.431C834.929 -6.34816 1159.57 753.206 413.566 662.035M804.702 156.068V156.672" stroke="white" stroke-width="30" stroke-linecap="round"/>
<path d="M203.175 1094.22V1345H169.225V1230.9H33.95V1345H-2.20984e-05V1094.22H33.95V1206.05H169.225V1094.22H203.175ZM400.46 1251.9L361.085 1149.87C359.918 1146.84 358.693 1143.34 357.41 1139.37C356.127 1135.29 354.902 1130.97 353.735 1126.42C351.285 1135.87 348.777 1143.75 346.21 1150.05L306.835 1251.9H400.46ZM471.16 1345H444.91C441.877 1345 439.427 1344.24 437.56 1342.72C435.693 1341.21 434.293 1339.28 433.36 1336.95L409.91 1276.4H297.385L273.935 1336.95C273.235 1339.05 271.893 1340.92 269.91 1342.55C267.927 1344.18 265.477 1345 262.56 1345H236.31L336.585 1094.22H370.885L471.16 1345ZM721.5 1219.7C721.5 1238.48 718.525 1255.57 712.575 1270.97C706.625 1286.37 698.225 1299.56 687.375 1310.52C676.525 1321.49 663.459 1330.01 648.175 1336.07C633.009 1342.02 616.209 1345 597.775 1345H504.15V1094.22H597.775C616.209 1094.22 633.009 1097.26 648.175 1103.32C663.459 1109.27 676.525 1117.79 687.375 1128.87C698.225 1139.84 706.625 1153.02 712.575 1168.42C718.525 1183.82 721.5 1200.92 721.5 1219.7ZM686.675 1219.7C686.675 1204.3 684.575 1190.53 680.375 1178.4C676.175 1166.27 670.225 1156 662.525 1147.6C654.825 1139.2 645.492 1132.78 634.525 1128.35C623.559 1123.92 611.309 1121.7 597.775 1121.7H538.1V1317.52H597.775C611.309 1317.52 623.559 1315.31 634.525 1310.87C645.492 1306.44 654.825 1300.08 662.525 1291.8C670.225 1283.4 676.175 1273.13 680.375 1261C684.575 1248.87 686.675 1235.1 686.675 1219.7ZM925.11 1317.35L924.935 1345H770.41V1094.22H924.935V1121.87H804.36V1205.17H902.01V1231.77H804.36V1317.35H925.11ZM1189.76 1219.7C1189.76 1238.48 1186.79 1255.57 1180.84 1270.97C1174.89 1286.37 1166.49 1299.56 1155.64 1310.52C1144.79 1321.49 1131.72 1330.01 1116.44 1336.07C1101.27 1342.02 1084.47 1345 1066.04 1345H972.412V1094.22H1066.04C1084.47 1094.22 1101.27 1097.26 1116.44 1103.32C1131.72 1109.27 1144.79 1117.79 1155.64 1128.87C1166.49 1139.84 1174.89 1153.02 1180.84 1168.42C1186.79 1183.82 1189.76 1200.92 1189.76 1219.7ZM1154.94 1219.7C1154.94 1204.3 1152.84 1190.53 1148.64 1178.4C1144.44 1166.27 1138.49 1156 1130.79 1147.6C1123.09 1139.2 1113.75 1132.78 1102.79 1128.35C1091.82 1123.92 1079.57 1121.7 1066.04 1121.7H1006.36V1317.52H1066.04C1079.57 1317.52 1091.82 1315.31 1102.79 1310.87C1113.75 1306.44 1123.09 1300.08 1130.79 1291.8C1138.49 1283.4 1144.44 1273.13 1148.64 1261C1152.84 1248.87 1154.94 1235.1 1154.94 1219.7ZM1365.01 1251.9L1325.64 1149.87C1324.47 1146.84 1323.24 1143.34 1321.96 1139.37C1320.68 1135.29 1319.45 1130.97 1318.29 1126.42C1315.84 1135.87 1313.33 1143.75 1310.76 1150.05L1271.39 1251.9H1365.01ZM1435.71 1345H1409.46C1406.43 1345 1403.98 1344.24 1402.11 1342.72C1400.24 1341.21 1398.84 1339.28 1397.91 1336.95L1374.46 1276.4H1261.94L1238.49 1336.95C1237.79 1339.05 1236.44 1340.92 1234.46 1342.55C1232.48 1344.18 1230.03 1345 1227.11 1345H1200.86L1301.14 1094.22H1335.44L1435.71 1345ZM357.667 1514.22V1765H323.717V1650.9H188.442V1765H154.492V1514.22H188.442V1626.05H323.717V1514.22H357.667ZM576.477 1737.35L576.302 1765H421.777V1514.22H576.302V1541.87H455.727V1625.17H553.377V1651.77H455.727V1737.35H576.477ZM756.954 1671.9L717.579 1569.87C716.413 1566.84 715.188 1563.34 713.904 1559.37C712.621 1555.29 711.396 1550.97 710.229 1546.42C707.779 1555.87 705.271 1563.75 702.704 1570.05L663.329 1671.9H756.954ZM827.654 1765H801.404C798.371 1765 795.921 1764.24 794.054 1762.72C792.188 1761.21 790.788 1759.28 789.854 1756.95L766.404 1696.4H653.879L630.429 1756.95C629.729 1759.05 628.388 1760.92 626.404 1762.55C624.421 1764.18 621.971 1765 619.054 1765H592.804L693.079 1514.22H727.379L827.654 1765ZM1002.92 1736.47V1765H860.645V1514.22H894.42V1736.47H1002.92ZM1177.19 1542.75H1095.99V1765H1062.22V1542.75H980.842V1514.22H1177.19V1542.75ZM1417.58 1514.22V1765H1383.63V1650.9H1248.35V1765H1214.4V1514.22H1248.35V1626.05H1383.63V1514.22H1417.58Z" fill="#2D6356"/>
</svg>
