<svg width="5134" height="855" viewBox="0 0 5134 855" fill="none" xmlns="http://www.w3.org/2000/svg">
<path d="M761 294.183C742.864 219.315 676.969 117.88 527.648 94.9365C419.436 -81.367 243.515 75.0117 340.846 172.22C390.66 217.256 418.589 242.506 468.404 287.542C586.079 405.069 542.539 545.598 406.136 617.574M340.846 840V644.376C364.438 637.084 386.272 628.056 406.136 617.574M406.136 617.574V840M15 589.431C436.363 -78.3482 761 681.206 15 590.035M406.136 84.0684V84.6722" stroke="#2D6356" stroke-width="30" stroke-linecap="round"/>
<path d="M1275.25 243.75V602H1226.75V439H1033.5V602H984.996V243.75H1033.5V403.5H1226.75V243.75H1275.25ZM1557.08 469L1500.83 323.25C1499.17 318.917 1497.42 313.917 1495.58 308.25C1493.75 302.417 1492 296.25 1490.33 289.75C1486.83 303.25 1483.25 314.5 1479.58 323.5L1423.33 469H1557.08ZM1658.08 602H1620.58C1616.25 602 1612.75 600.917 1610.08 598.75C1607.42 596.583 1605.42 593.833 1604.08 590.5L1570.58 504H1409.83L1376.33 590.5C1375.33 593.5 1373.42 596.167 1370.58 598.5C1367.75 600.833 1364.25 602 1360.08 602H1322.58L1465.83 243.75H1514.83L1658.08 602ZM2015.71 423C2015.71 449.833 2011.46 474.25 2002.96 496.25C1994.46 518.25 1982.46 537.083 1966.96 552.75C1951.46 568.417 1932.79 580.583 1910.96 589.25C1889.29 597.75 1865.29 602 1838.96 602H1705.21V243.75H1838.96C1865.29 243.75 1889.29 248.083 1910.96 256.75C1932.79 265.25 1951.46 277.417 1966.96 293.25C1982.46 308.917 1994.46 327.75 2002.96 349.75C2011.46 371.75 2015.71 396.167 2015.71 423ZM1965.96 423C1965.96 401 1962.96 381.333 1956.96 364C1950.96 346.667 1942.46 332 1931.46 320C1920.46 308 1907.13 298.833 1891.46 292.5C1875.79 286.167 1858.29 283 1838.96 283H1753.71V562.75H1838.96C1858.29 562.75 1875.79 559.583 1891.46 553.25C1907.13 546.917 1920.46 537.833 1931.46 526C1942.46 514 1950.96 499.333 1956.96 482C1962.96 464.667 1965.96 445 1965.96 423ZM2266.07 469L2209.82 323.25C2208.15 318.917 2206.4 313.917 2204.57 308.25C2202.73 302.417 2200.98 296.25 2199.32 289.75C2195.82 303.25 2192.23 314.5 2188.57 323.5L2132.32 469H2266.07ZM2367.07 602H2329.57C2325.23 602 2321.73 600.917 2319.07 598.75C2316.4 596.583 2314.4 593.833 2313.07 590.5L2279.57 504H2118.82L2085.32 590.5C2084.32 593.5 2082.4 596.167 2079.57 598.5C2076.73 600.833 2073.23 602 2069.07 602H2031.57L2174.82 243.75H2223.82L2367.07 602ZM2724.7 423C2724.7 449.833 2720.45 474.25 2711.95 496.25C2703.45 518.25 2691.45 537.083 2675.95 552.75C2660.45 568.417 2641.78 580.583 2619.95 589.25C2598.28 597.75 2574.28 602 2547.95 602H2414.2V243.75H2547.95C2574.28 243.75 2598.28 248.083 2619.95 256.75C2641.78 265.25 2660.45 277.417 2675.95 293.25C2691.45 308.917 2703.45 327.75 2711.95 349.75C2720.45 371.75 2724.7 396.167 2724.7 423ZM2674.95 423C2674.95 401 2671.95 381.333 2665.95 364C2659.95 346.667 2651.45 332 2640.45 320C2629.45 308 2616.11 298.833 2600.45 292.5C2584.78 286.167 2567.28 283 2547.95 283H2462.7V562.75H2547.95C2567.28 562.75 2584.78 559.583 2600.45 553.25C2616.11 546.917 2629.45 537.833 2640.45 526C2651.45 514 2659.95 499.333 2665.95 482C2671.95 464.667 2674.95 445 2674.95 423ZM2975.05 469L2918.8 323.25C2917.13 318.917 2915.38 313.917 2913.55 308.25C2911.72 302.417 2909.97 296.25 2908.3 289.75C2904.8 303.25 2901.22 314.5 2897.55 323.5L2841.3 469H2975.05ZM3076.05 602H3038.55C3034.22 602 3030.72 600.917 3028.05 598.75C3025.38 596.583 3023.38 593.833 3022.05 590.5L2988.55 504H2827.8L2794.3 590.5C2793.3 593.5 2791.38 596.167 2788.55 598.5C2785.72 600.833 2782.22 602 2778.05 602H2740.55L2883.8 243.75H2932.8L3076.05 602ZM3524.76 243.75V602H3476.26V439H3283.01V602H3234.51V243.75H3283.01V403.5H3476.26V243.75H3524.76ZM3837.34 562.5L3837.09 602H3616.34V243.75H3837.09V283.25H3664.84V402.25H3804.34V440.25H3664.84V562.5H3837.34ZM4095.17 469L4038.92 323.25C4037.25 318.917 4035.5 313.917 4033.67 308.25C4031.83 302.417 4030.08 296.25 4028.42 289.75C4024.92 303.25 4021.33 314.5 4017.67 323.5L3961.42 469H4095.17ZM4196.17 602H4158.67C4154.33 602 4150.83 600.917 4148.17 598.75C4145.5 596.583 4143.5 593.833 4142.17 590.5L4108.67 504H3947.92L3914.42 590.5C3913.42 593.5 3911.5 596.167 3908.67 598.5C3905.83 600.833 3902.33 602 3898.17 602H3860.67L4003.92 243.75H4052.92L4196.17 602ZM4446.55 561.25V602H4243.3V243.75H4291.55V561.25H4446.55ZM4695.51 284.5H4579.51V602H4531.26V284.5H4415.01V243.75H4695.51V284.5ZM5038.92 243.75V602H4990.42V439H4797.17V602H4748.67V243.75H4797.17V403.5H4990.42V243.75H5038.92Z" fill="#2D6356"/>
</svg>
